<svg xmlns="http://www.w3.org/2000/svg" fill="url(#gradient-brand) #8954FF" height="40" width="40" viewBox="0 0 40 40" stroke="none">
  <g>
    <path
      fill-rule="evenodd"
      clip-rule="evenOdd"
      d="M11.6663 2.9165C11.9979 2.9165 12.3158 3.0482 12.5502 3.28262C12.7846 3.51704 12.9163 3.83498 12.9163 4.1665V5.43817C14.0197 5.4165 15.2347 5.4165 16.573 5.4165H23.4263C24.7647 5.4165 25.9797 5.4165 27.083 5.43817V4.1665C27.083 3.83498 27.2147 3.51704 27.4491 3.28262C27.6835 3.0482 28.0015 2.9165 28.333 2.9165C28.6645 2.9165 28.9825 3.0482 29.2169 3.28262C29.4513 3.51704 29.583 3.83498 29.583 4.1665V5.54484C30.0163 5.57817 30.4263 5.61984 30.8147 5.6715C32.768 5.93484 34.3497 6.48817 35.598 7.73484C36.8447 8.98317 37.398 10.5648 37.6613 12.5182C37.7447 13.1432 37.8013 13.8248 37.8397 14.5682C37.9307 14.814 37.9418 15.0823 37.8713 15.3348C37.9163 16.6698 37.9163 18.1882 37.9163 19.9065V23.4265C37.9163 26.4898 37.9163 28.9165 37.6613 30.8148C37.398 32.7682 36.8447 34.3498 35.598 35.5982C34.3497 36.8448 32.768 37.3982 30.8147 37.6615C28.9147 37.9165 26.4897 37.9165 23.4263 37.9165H16.573C13.5097 37.9165 11.083 37.9165 9.18468 37.6615C7.23134 37.3982 5.64967 36.8448 4.40134 35.5982C3.15467 34.3498 2.60134 32.7682 2.33801 30.8148C2.08301 28.9148 2.08301 26.4898 2.08301 23.4265V19.9065C2.08301 18.1882 2.08301 16.6698 2.12801 15.3332C2.05846 15.0804 2.07012 14.8122 2.16134 14.5665C2.19801 13.8248 2.25467 13.1432 2.33801 12.5182C2.60134 10.5648 3.15467 8.98317 4.40134 7.73484C5.64967 6.48817 7.23134 5.93484 9.18468 5.6715C9.57301 5.61984 9.98468 5.57817 10.4163 5.54484V4.1665C10.4163 3.83498 10.548 3.51704 10.7825 3.28262C11.0169 3.0482 11.3348 2.9165 11.6663 2.9165ZM4.60467 16.2498C4.58301 17.3382 4.58301 18.5765 4.58301 19.9998V23.3332C4.58301 26.5115 4.58634 28.7698 4.81634 30.4832C5.04134 32.1582 5.46467 33.1248 6.16967 33.8298C6.87467 34.5348 7.84134 34.9582 9.51801 35.1832C11.2313 35.4132 13.488 35.4165 16.6663 35.4165H23.333C26.5113 35.4165 28.7697 35.4132 30.483 35.1832C32.158 34.9582 33.1247 34.5348 33.8297 33.8298C34.5347 33.1248 34.958 32.1582 35.183 30.4815C35.413 28.7698 35.4163 26.5115 35.4163 23.3332V19.9998C35.4163 18.5765 35.4163 17.3382 35.3947 16.2498H4.60467ZM35.2797 13.7498H4.71967C4.74634 13.4332 4.77801 13.1348 4.81634 12.8498C5.04134 11.1748 5.46467 10.2082 6.16967 9.50317C6.87467 8.79817 7.84134 8.37484 9.51801 8.14984C11.2313 7.91984 13.488 7.9165 16.6663 7.9165H23.333C26.5113 7.9165 28.7697 7.91984 30.483 8.14984C32.158 8.37484 33.1247 8.79817 33.8297 9.50317C34.5347 10.2082 34.958 11.1748 35.183 12.8515C35.2213 13.1348 35.253 13.4348 35.2797 13.7498Z"
    />
  </g>
</svg>