<svg xmlns="http://www.w3.org/2000/svg" fill="url(#gradient-brand)" height="40" width="40" viewBox="0 0 40 40" stroke="none">
  <g>
    <path
      fill-rule="evenodd"
      clip-rule="evenOdd"
      d="M20.6654 2.0835C18.5657 2.0835 16.5521 2.91757 15.0674 4.40223C13.5828 5.8869 12.7487 7.90053 12.7487 10.0002C12.7487 12.0998 13.5828 14.1134 15.0674 15.5981C16.5521 17.0828 18.5657 17.9168 20.6654 17.9168C22.765 17.9168 24.7786 17.0828 26.2633 15.5981C27.748 14.1134 28.582 12.0998 28.582 10.0002C28.582 7.90053 27.748 5.8869 26.2633 4.40223C24.7786 2.91757 22.765 2.0835 20.6654 2.0835ZM15.2487 10.0002C15.2487 8.56357 15.8194 7.18582 16.8352 6.17C17.851 5.15418 19.2288 4.5835 20.6654 4.5835C22.102 4.5835 23.4797 5.15418 24.4955 6.17C25.5113 7.18582 26.082 8.56357 26.082 10.0002C26.082 11.4368 25.5113 12.8145 24.4955 13.8303C23.4797 14.8461 22.102 15.4168 20.6654 15.4168C19.2288 15.4168 17.851 14.8461 16.8352 13.8303C15.8194 12.8145 15.2487 11.4368 15.2487 10.0002ZM30.6654 5.41683C30.3338 5.41683 30.0159 5.54853 29.7815 5.78295C29.5471 6.01737 29.4154 6.33531 29.4154 6.66683C29.4154 6.99835 29.5471 7.31629 29.7815 7.55071C30.0159 7.78513 30.3338 7.91683 30.6654 7.91683C32.9604 7.91683 34.4154 9.42683 34.4154 10.8335C34.4154 12.2402 32.9604 13.7502 30.6654 13.7502C30.3338 13.7502 30.0159 13.8819 29.7815 14.1163C29.5471 14.3507 29.4154 14.6686 29.4154 15.0002C29.4154 15.3317 29.5471 15.6496 29.7815 15.884C30.0159 16.1185 30.3338 16.2502 30.6654 16.2502C33.8937 16.2502 36.9154 14.0285 36.9154 10.8335C36.9154 7.6385 33.8937 5.41683 30.6654 5.41683ZM11.9154 6.66683C11.9154 6.33531 11.7837 6.01737 11.5492 5.78295C11.3148 5.54853 10.9969 5.41683 10.6654 5.41683C7.43703 5.41683 4.41536 7.6385 4.41536 10.8335C4.41536 14.0285 7.43703 16.2502 10.6654 16.2502C10.9969 16.2502 11.3148 16.1185 11.5492 15.884C11.7837 15.6496 11.9154 15.3317 11.9154 15.0002C11.9154 14.6686 11.7837 14.3507 11.5492 14.1163C11.3148 13.8819 10.9969 13.7502 10.6654 13.7502C8.37203 13.7502 6.91536 12.2402 6.91536 10.8335C6.91536 9.42683 8.37203 7.91683 10.6654 7.91683C10.9969 7.91683 11.3148 7.78513 11.5492 7.55071C11.7837 7.31629 11.9154 6.99835 11.9154 6.66683ZM20.6654 20.4168C17.692 20.4168 14.942 21.2168 12.9004 22.5785C10.867 23.9352 9.41536 25.9452 9.41536 28.3335C9.41536 30.7218 10.867 32.7335 12.9004 34.0885C14.942 35.4485 17.692 36.2502 20.6654 36.2502C23.6387 36.2502 26.3887 35.4502 28.4304 34.0885C30.4637 32.7318 31.9154 30.7218 31.9154 28.3335C31.9154 25.9452 30.462 23.9335 28.4304 22.5785C26.3887 21.2185 23.6387 20.4168 20.6654 20.4168ZM11.9154 28.3335C11.9154 27.0402 12.702 25.7168 14.287 24.6602C15.8654 23.6085 18.117 22.9168 20.6654 22.9168C23.2154 22.9168 25.4654 23.6085 27.0437 24.6602C28.6287 25.7168 29.4154 27.0402 29.4154 28.3335C29.4154 29.6268 28.6287 30.9502 27.0437 32.0068C25.4654 33.0585 23.2137 33.7502 20.6654 33.7502C18.1154 33.7502 15.8654 33.0585 14.287 32.0068C12.702 30.9502 11.9154 29.6268 11.9154 28.3335ZM32.777 23.0668C32.812 22.9062 32.8783 22.754 32.9721 22.6191C33.066 22.4841 33.1855 22.369 33.3239 22.2802C33.4623 22.1915 33.6169 22.131 33.7787 22.1021C33.9405 22.0732 34.1065 22.0765 34.267 22.1118C35.8687 22.4635 37.3137 23.0985 38.387 23.9768C39.4587 24.8535 40.2487 26.0602 40.2487 27.5002C40.2487 28.9418 39.4587 30.1468 38.387 31.0235C37.3137 31.9018 35.8704 32.5368 34.267 32.8885C34.1066 32.9237 33.9408 32.927 33.7791 32.8982C33.6174 32.8694 33.4629 32.8089 33.3246 32.7204C33.1862 32.6319 33.0667 32.517 32.9727 32.3822C32.8788 32.2475 32.8123 32.0956 32.777 31.9352C32.7418 31.7747 32.7385 31.6089 32.7673 31.4472C32.7962 31.2855 32.8566 31.1311 32.9451 30.9927C33.0336 30.8544 33.1485 30.7348 33.2833 30.6408C33.418 30.5469 33.5699 30.4804 33.7304 30.4452C35.052 30.1568 36.107 29.6585 36.8037 29.0885C37.5004 28.5185 37.7487 27.9602 37.7487 27.5002C37.7487 27.0402 37.5004 26.4835 36.8037 25.9118C36.107 25.3418 35.052 24.8452 33.7304 24.5552C33.5699 24.52 33.4179 24.4536 33.2831 24.3597C33.1483 24.2657 33.0334 24.1462 32.9448 24.0078C32.8563 23.8694 32.7959 23.7149 32.7671 23.5532C32.7383 23.3914 32.7417 23.2273 32.777 23.0668ZM7.06536 22.1118C7.38937 22.0411 7.7282 22.102 8.00732 22.2811C8.28643 22.4602 8.48297 22.7428 8.5537 23.0668C8.62442 23.3908 8.56354 23.7297 8.38444 24.0088C8.20534 24.2879 7.9227 24.4844 7.5987 24.5552C6.2787 24.8435 5.2237 25.3418 4.52703 25.9118C3.83036 26.4818 3.58203 27.0402 3.58203 27.5002C3.58203 27.9602 3.83036 28.5168 4.52703 29.0885C5.2237 29.6585 6.2787 30.1552 7.60036 30.4452C7.92437 30.5163 8.20684 30.7133 8.38562 30.9927C8.5644 31.2722 8.62486 31.6112 8.5537 31.9352C8.48253 32.2592 8.28557 32.5416 8.00614 32.7204C7.72671 32.8992 7.3877 32.9597 7.0637 32.8885C5.46036 32.5368 4.01703 31.9018 2.9437 31.0235C1.87203 30.1468 1.08203 28.9402 1.08203 27.5002C1.08203 26.0585 1.87203 24.8535 2.9437 23.9768C4.01703 23.0985 5.46203 22.4635 7.06536 22.1118Z"
    />
  </g>
</svg>