<svg xmlns="http://www.w3.org/2000/svg" fill="url(#gradient-brand) #8954FF" height="40" width="40" viewBox="0 0 40 40" stroke="none">
  <path
    fill-rule="evenodd"
    clip-rule="evenodd"
    d="M30.748 3.31351C31.1348 2.90977 31.5983 2.58732 32.1114 2.36508C32.6244 2.14284 33.1767 2.02527 33.7358 2.01928C34.2949 2.01329 34.8496 2.119 35.3673 2.33019C35.885 2.54139 36.3553 2.85383 36.7507 3.24919C37.146 3.64456 37.4585 4.11488 37.6697 4.63258C37.8809 5.15029 37.9866 5.70495 37.9806 6.26404C37.9746 6.82313 37.857 7.37541 37.6348 7.88846C37.4125 8.40152 37.0901 8.86504 36.6863 9.25184L29.5497 16.3885C29.1663 16.7718 28.898 17.0418 28.5963 17.2752C28.2436 17.5508 27.8619 17.7872 27.458 17.9802C27.1147 18.1435 26.7547 18.2635 26.238 18.4352C26.2158 18.4431 26.1936 18.4508 26.1713 18.4585L23.108 19.4785C22.7477 19.5986 22.3611 19.616 21.9915 19.5287C21.6219 19.4414 21.2839 19.253 21.0154 18.9844C20.7469 18.7159 20.5584 18.3779 20.4712 18.0083C20.3839 17.6387 20.4013 17.2521 20.5213 16.8918L21.5413 13.8285C21.549 13.8063 21.5568 13.784 21.5647 13.7618C21.7363 13.2452 21.8563 12.8852 22.0197 12.5418C22.213 12.1385 22.4497 11.7552 22.7247 11.4018C22.958 11.1018 23.2263 10.8352 23.6113 10.4502L30.748 3.31351ZM34.918 5.08018C34.5992 4.76162 34.167 4.58267 33.7163 4.58267C33.2657 4.58267 32.8335 4.76162 32.5147 5.08018L32.2963 5.30018L32.323 5.38351C32.4597 5.77684 32.7197 6.29684 33.2113 6.78851C33.6273 7.20835 34.1376 7.52264 34.6997 7.70518L34.918 7.48518C35.2366 7.1664 35.4155 6.73418 35.4155 6.28351C35.4155 5.83285 35.2366 5.39896 34.918 5.08018ZM32.8097 9.59351C31.8022 9.02951 30.9703 8.1977 30.4063 7.19018L25.4297 12.1668C24.9763 12.6218 24.823 12.7768 24.6963 12.9402C24.5321 13.1498 24.3913 13.3767 24.2763 13.6168C24.188 13.8052 24.1163 14.0102 23.913 14.6202L23.538 15.7452L24.2547 16.4618L25.3797 16.0852C25.9897 15.8835 26.1947 15.8118 26.383 15.7235C26.6231 15.6085 26.85 15.4677 27.0597 15.3035C27.223 15.1768 27.378 15.0235 27.833 14.5702L32.8097 9.59351Z"
    fill="url(#gradient-brand) #8954FF"
  />
  <path
    fill-rule="evenodd"
    clip-rule="evenodd"
    d="M19.9997 2.08351H19.9047C16.0563 2.08351 13.0413 2.08351 10.688 2.40018C8.28134 2.72351 6.38134 3.40018 4.88967 4.89018C3.39801 6.38184 2.72301 8.28184 2.39967 10.6902C2.08301 13.0418 2.08301 16.0568 2.08301 19.9052V20.0952C2.08301 23.9435 2.08301 26.9585 2.39967 29.3118C2.72301 31.7185 3.39967 33.6185 4.88967 35.1102C6.38134 36.6018 8.28134 37.2768 10.6897 37.6002C13.0413 37.9168 16.0563 37.9168 19.9047 37.9168H20.0947C23.943 37.9168 26.958 37.9168 29.3113 37.6002C31.718 37.2768 33.618 36.6002 35.1097 35.1102C36.6013 33.6185 37.2763 31.7185 37.5997 29.3102C37.9163 26.9585 37.9163 23.9435 37.9163 20.0952V20.0002C37.9163 19.6687 37.7846 19.3507 37.5502 19.1163C37.3158 18.8819 36.9979 18.7502 36.6663 18.7502C36.3348 18.7502 36.0169 18.8819 35.7825 19.1163C35.548 19.3507 35.4163 19.6687 35.4163 20.0002C35.4163 23.9635 35.413 26.8102 35.123 28.9768L35.0863 29.2302L30.463 25.0685C29.4112 24.1222 28.0694 23.5607 26.6571 23.4759C25.2448 23.3911 23.8455 23.7881 22.688 24.6018L22.1913 24.9518C21.79 25.2333 21.3022 25.3642 20.8138 25.3215C20.3255 25.2788 19.8678 25.0653 19.5213 24.7185L12.3713 17.5685C11.4593 16.6568 10.2348 16.1258 8.94591 16.0831C7.65703 16.0404 6.40008 16.4892 5.42967 17.3385L4.58467 18.0768C4.59301 15.0902 4.63467 12.8218 4.87634 11.0235C5.16301 8.89184 5.70967 7.60684 6.65801 6.65684C7.60801 5.70851 8.89134 5.16351 11.023 4.87684C13.1897 4.58684 16.0363 4.58351 19.9997 4.58351C20.3312 4.58351 20.6491 4.45181 20.8836 4.21739C21.118 3.98297 21.2497 3.66503 21.2497 3.33351C21.2497 3.00199 21.118 2.68405 20.8836 2.44963C20.6491 2.21521 20.3312 2.08351 19.9997 2.08351ZM4.87634 28.9768C5.16301 31.1085 5.70967 32.3935 6.65801 33.3435C7.60801 34.2918 8.89134 34.8368 11.023 35.1235C13.1897 35.4135 16.0363 35.4168 19.9997 35.4168C23.963 35.4168 26.8097 35.4135 28.9763 35.1235C31.108 34.8368 32.393 34.2902 33.343 33.3418C33.76 32.9236 34.1007 32.4357 34.3497 31.9002C34.2833 31.8599 34.2208 31.8136 34.163 31.7618L28.7913 26.9285C28.1605 26.3598 27.3553 26.022 26.5076 25.9706C25.6598 25.9191 24.8197 26.1569 24.1247 26.6452L23.6297 26.9952C22.747 27.6157 21.6737 27.905 20.5987 27.812C19.5237 27.719 18.516 27.2497 17.753 26.4868L10.603 19.3368C10.1394 18.8734 9.51703 18.6035 8.86188 18.5818C8.20673 18.5601 7.56784 18.7883 7.07467 19.2202L4.58301 21.4002C4.58801 24.6468 4.62134 27.0752 4.87634 28.9768Z"
    fill="url(#gradient-brand) #8954FF"
  />
</svg>