<svg xmlns="http://www.w3.org/2000/svg" fill="url(#gradient-brand) #8954FF" height="24" width="24" viewBox="0 0 40 40" stroke="none">
  <path
    fill-rule="evenodd"
    clip-rule="evenOdd"
    d="M20.6667 13.7498C19.0091 13.7498 17.4194 14.4083 16.2472 15.5804C15.0751 16.7525 14.4167 18.3422 14.4167 19.9998C14.4167 21.6574 15.0751 23.2472 16.2472 24.4193C17.4194 25.5914 19.0091 26.2498 20.6667 26.2498C22.3243 26.2498 23.914 25.5914 25.0861 24.4193C26.2582 23.2472 26.9167 21.6574 26.9167 19.9998C26.9167 18.3422 26.2582 16.7525 25.0861 15.5804C23.914 14.4083 22.3243 13.7498 20.6667 13.7498ZM16.9167 19.9998C16.9167 19.0053 17.3118 18.0514 18.015 17.3482C18.7183 16.6449 19.6721 16.2498 20.6667 16.2498C21.6612 16.2498 22.6151 16.6449 23.3183 17.3482C24.0216 18.0514 24.4167 19.0053 24.4167 19.9998C24.4167 20.9944 24.0216 21.9482 23.3183 22.6515C22.6151 23.3547 21.6612 23.7498 20.6667 23.7498C19.6721 23.7498 18.7183 23.3547 18.015 22.6515C17.3118 21.9482 16.9167 20.9944 16.9167 19.9998ZM20.6667 5.4165C13.1433 5.4165 8.075 9.92317 5.13333 13.7448L5.08167 13.8132C4.415 14.6782 3.80333 15.4732 3.38833 16.4132C2.94333 17.4215 2.75 18.5198 2.75 19.9998C2.75 21.4798 2.94333 22.5782 3.38833 23.5865C3.805 24.5265 4.41667 25.3232 5.08167 26.1865L5.135 26.2548C8.075 30.0765 13.1433 34.5832 20.6667 34.5832C28.19 34.5832 33.2583 30.0765 36.2 26.2548L36.2517 26.1865C36.9183 25.3232 37.53 24.5265 37.945 23.5865C38.39 22.5782 38.5833 21.4798 38.5833 19.9998C38.5833 18.5198 38.39 17.4215 37.945 16.4132C37.5283 15.4732 36.9167 14.6782 36.2517 13.8132L36.1983 13.7448C33.2583 9.92317 28.19 5.4165 20.6667 5.4165ZM7.11667 15.2698C9.83 11.7415 14.25 7.9165 20.6667 7.9165C27.0833 7.9165 31.5017 11.7415 34.2167 15.2698C34.95 16.2198 35.3767 16.7865 35.6583 17.4232C35.9217 18.0198 36.0833 18.7482 36.0833 19.9998C36.0833 21.2515 35.9217 21.9798 35.6583 22.5765C35.3767 23.2132 34.9483 23.7798 34.2183 24.7298C31.5 28.2582 27.0833 32.0832 20.6667 32.0832C14.25 32.0832 9.83167 28.2582 7.11667 24.7298C6.38333 23.7798 5.95667 23.2132 5.675 22.5765C5.41167 21.9798 5.25 21.2515 5.25 19.9998C5.25 18.7482 5.41167 18.0198 5.675 17.4232C5.95667 16.7865 6.38667 16.2198 7.11667 15.2698Z"
  />
</svg>