<svg xmlns="http://www.w3.org/2000/svg" fill="url(#gradient-brand)" height="40" width="40" viewBox="0 0 40 40" stroke="none">
  <path
    fill-rule="evenodd"
    clip-rule="evenOdd"
    d="M26.3045 2.36673C28.4911 3.10173 29.9161 5.16006 29.9161 7.85839C29.9161 9.55339 28.9528 11.1151 27.8778 12.3584C26.7728 13.6401 25.3761 14.7884 24.1528 15.6801L23.9978 15.7934C22.8111 16.6601 21.8311 17.3767 20.3328 17.3767C18.8328 17.3767 17.8561 16.6601 16.6695 15.7934L16.5128 15.6801C15.2895 14.7884 13.8928 13.6401 12.7878 12.3601C11.7161 11.1151 10.7495 9.55339 10.7495 7.85839C10.7495 5.16006 12.1745 3.10339 14.3611 2.36673C16.2278 1.73839 18.3978 2.15339 20.3328 3.56173C22.2678 2.15339 24.4395 1.73839 26.3045 2.36673ZM25.5078 4.73673C24.4211 4.37006 22.7995 4.60673 21.1795 6.09673C20.9488 6.30872 20.6469 6.42637 20.3336 6.42637C20.0203 6.42637 19.7185 6.30872 19.4878 6.09673C17.8661 4.60673 16.2461 4.37006 15.1595 4.73673C14.1161 5.08673 13.2495 6.09339 13.2495 7.85839C13.2495 8.63673 13.7245 9.61673 14.6811 10.7267C15.6078 11.8017 16.8345 12.8217 17.9861 13.6601C19.3911 14.6851 19.7245 14.8767 20.3328 14.8767C20.9411 14.8767 21.2745 14.6851 22.6811 13.6601C23.8311 12.8217 25.0578 11.8017 25.9845 10.7267C26.9428 9.61673 27.4178 8.63673 27.4178 7.85839C27.4178 6.09173 26.5495 5.08673 25.5078 4.73673ZM14.8061 24.0801C17.9161 23.4767 21.2445 23.6134 23.9395 25.2201C24.3161 25.4451 24.6728 25.7267 24.9811 26.0734C25.6078 26.7767 25.9311 27.6517 25.9461 28.5284C26.2645 28.3234 26.5845 28.0951 26.9078 27.8501L29.9211 25.5751C30.6756 25.0207 31.5874 24.7217 32.5236 24.7217C33.4599 24.7217 34.3717 25.0207 35.1261 25.5751C36.5195 26.6251 37.0761 28.5134 36.0778 30.1117C35.3695 31.2484 34.3011 32.8201 33.2161 33.8267C32.1161 34.8434 30.5545 35.6984 29.3728 36.2701C27.9361 36.9634 26.3861 37.3451 24.8778 37.5901C21.7945 38.0901 18.5878 38.0117 15.5411 37.3851C13.97 37.0617 12.3702 36.8981 10.7661 36.8967H6.99947C6.66795 36.8967 6.35 36.765 6.11558 36.5306C5.88116 36.2962 5.74947 35.9782 5.74947 35.6467C5.74947 35.3152 5.88116 34.9973 6.11558 34.7628C6.35 34.5284 6.66795 34.3967 6.99947 34.3967H10.7661C12.5361 34.3967 14.3245 34.5801 16.0461 34.9367C18.8231 35.5065 21.6802 35.5692 24.4795 35.1217C25.8595 34.8984 27.1495 34.5667 28.2861 34.0184C29.4245 33.4684 30.7045 32.7451 31.5161 31.9917C32.3378 31.2317 33.2561 29.9134 33.9578 28.7901C34.1695 28.4501 34.1395 27.9601 33.6211 27.5684C33.3004 27.3417 32.9173 27.2199 32.5245 27.2199C32.1317 27.2199 31.7486 27.3417 31.4278 27.5684L28.4161 29.8451C27.2128 30.7534 25.7328 31.7251 23.8978 32.0167C23.7056 32.0478 23.5128 32.0751 23.3195 32.0984C22.1517 32.2331 20.9729 32.2443 19.8028 32.1317C19.6365 32.1202 19.4741 32.0756 19.3253 32.0004C19.1765 31.9252 19.0442 31.821 18.9363 31.6939C18.8283 31.5669 18.7469 31.4195 18.6968 31.2605C18.6467 31.1014 18.6289 30.934 18.6444 30.768C18.66 30.602 18.7086 30.4408 18.7874 30.2939C18.8662 30.1469 18.9736 30.0173 19.1033 29.9125C19.233 29.8077 19.3823 29.7299 19.5425 29.6837C19.7027 29.6375 19.8706 29.6238 20.0361 29.6434C21.0828 29.7417 22.0195 29.7201 22.8161 29.6384L22.8661 29.6334C23.0216 29.5369 23.1538 29.4071 23.253 29.2533C23.3523 29.0996 23.4162 28.9257 23.4401 28.7442C23.464 28.5628 23.4474 28.3783 23.3913 28.2041C23.3353 28.0299 23.2413 27.8702 23.1161 27.7367C22.9833 27.5905 22.8287 27.4657 22.6578 27.3667C20.6895 26.1917 18.0595 25.9967 15.2811 26.5334C12.5674 27.0793 9.99475 28.177 7.7228 29.7584C7.58885 29.8534 7.43751 29.9211 7.2774 29.9576C7.1173 29.9941 6.95158 29.9987 6.78969 29.9711C6.62781 29.9436 6.47294 29.8844 6.33392 29.797C6.1949 29.7096 6.07446 29.5957 5.97947 29.4617C5.88448 29.3278 5.8168 29.1764 5.7803 29.0163C5.7438 28.8562 5.7392 28.6905 5.76674 28.5286C5.79429 28.3667 5.85346 28.2119 5.94086 28.0728C6.02826 27.9338 6.14219 27.8134 6.27613 27.7184C8.83888 25.9317 11.7428 24.6931 14.8061 24.0801Z"
  />
</svg>