<svg xmlns="http://www.w3.org/2000/svg" fill="url(#gradient-brand) #8954FF" height="40" width="40" viewBox="0 0 40 40" stroke="none">
  <path
    fill-rule="evenodd"
    clip-rule="evenOdd"
    d="M26.2497 9.5835V13.8752C27.6612 14.1637 28.9297 14.9309 29.8407 16.047C30.7517 17.163 31.2493 18.5595 31.2493 20.0002C31.2493 21.4408 30.7517 22.8373 29.8407 23.9534C28.9297 25.0694 27.6612 25.8366 26.2497 26.1252V30.4152C27.978 30.4118 29.2897 30.3902 30.3497 30.2818C31.633 30.1518 32.408 29.9052 33.0097 29.5035C33.5997 29.1085 34.1097 28.6002 34.503 28.0102C34.9047 27.4085 35.153 26.6318 35.283 25.3502C35.4163 24.0485 35.4163 22.3668 35.4163 20.0002C35.4163 17.6335 35.4163 15.9518 35.283 14.6502C35.1513 13.3668 34.9047 12.5918 34.503 11.9902C34.108 11.3992 33.6006 10.8918 33.0097 10.4968C32.408 10.0952 31.6313 9.84683 30.3497 9.71683C29.2897 9.61016 27.978 9.5885 26.2497 9.5835ZM23.7497 30.4168V9.5835H16.2497V30.4168H23.7497ZM13.7497 30.4168V26.1252C12.3382 25.8366 11.0697 25.0694 10.1587 23.9534C9.24767 22.8373 8.75009 21.4408 8.75009 20.0002C8.75009 18.5595 9.24767 17.163 10.1587 16.047C11.0697 14.9309 12.3382 14.1637 13.7497 13.8752V9.58516C12.0213 9.5885 10.7097 9.61016 9.64967 9.7185C8.36634 9.8485 7.59134 10.0952 6.98967 10.4968C6.39874 10.8918 5.89132 11.3992 5.49634 11.9902C5.09467 12.5918 4.84634 13.3685 4.71634 14.6502C4.58301 15.9518 4.58301 17.6335 4.58301 20.0002C4.58301 22.3668 4.58301 24.0485 4.71634 25.3502C4.84801 26.6335 5.09467 27.4085 5.49634 28.0102C5.89134 28.6002 6.39967 29.1102 6.98967 29.5035C7.59134 29.9052 8.36801 30.1535 9.64967 30.2835C10.7097 30.3902 12.0213 30.4118 13.7497 30.4168ZM13.7497 16.4635C13.0178 16.7215 12.3839 17.2003 11.9356 17.8337C11.4872 18.4672 11.2465 19.2241 11.2465 20.0002C11.2465 20.7762 11.4872 21.5332 11.9356 22.1666C12.3839 22.8001 13.0178 23.2788 13.7497 23.5368V16.4635ZM26.2497 23.5368C26.9808 23.278 27.6138 22.799 28.0615 22.1657C28.5092 21.5323 28.7495 20.7758 28.7495 20.0002C28.7495 19.2246 28.5092 18.468 28.0615 17.8347C27.6138 17.2013 26.9808 16.7223 26.2497 16.4635V23.5368ZM30.603 7.23016C32.083 7.38016 33.318 7.69683 34.398 8.4185C35.263 8.99516 36.0047 9.73683 36.5813 10.6018C37.3047 11.6818 37.6197 12.9185 37.7697 14.3968C37.9163 15.8402 37.9163 17.6485 37.9163 19.9302V20.0702C37.9163 22.3518 37.9163 24.1602 37.7697 25.6035C37.6197 27.0835 37.303 28.3185 36.583 29.3985C36.005 30.2626 35.2626 31.0045 34.398 31.5818C33.318 32.3052 32.0813 32.6202 30.603 32.7702C29.1597 32.9168 27.3513 32.9168 25.0697 32.9168H14.9297C12.648 32.9168 10.8397 32.9168 9.39634 32.7702C7.91634 32.6202 6.68134 32.3035 5.60134 31.5835C4.73718 31.0056 3.99529 30.2631 3.41801 29.3985C2.69467 28.3185 2.37967 27.0818 2.22967 25.6035C2.08301 24.1602 2.08301 22.3518 2.08301 20.0702V19.9302C2.08301 17.6485 2.08301 15.8402 2.22967 14.3968C2.37967 12.9168 2.69634 11.6818 3.41801 10.6018C3.99543 9.7378 4.73732 8.99592 5.60134 8.4185C6.68134 7.69516 7.91801 7.38016 9.39634 7.23016C10.8397 7.0835 12.648 7.0835 14.9297 7.0835H25.0697C27.3513 7.0835 29.1597 7.0835 30.603 7.23016Z"
  />
</svg>