<svg xmlns="http://www.w3.org/2000/svg" fill="#8954FF" height="40" width="40" viewBox="0 0 40 40" stroke="none">
  <path
    fill-rule="evenodd"
    clip-rule="evenOdd"
    d="M25.434 17.5002C25.655 17.2526 25.7686 16.9274 25.7499 16.5961C25.7311 16.2648 25.5815 15.9545 25.334 15.7335C25.0864 15.5125 24.7613 15.3989 24.4299 15.4176C24.0986 15.4364 23.7883 15.586 23.5673 15.8335L18.549 21.4568L17.099 19.8335C16.8774 19.5886 16.5679 19.4414 16.2381 19.424C15.9083 19.4066 15.585 19.5204 15.3388 19.7406C15.0927 19.9607 14.9436 20.2694 14.9243 20.5991C14.905 20.9288 15.0169 21.2527 15.2357 21.5002L17.6157 24.1668C17.7329 24.2982 17.8766 24.4033 18.0373 24.4752C18.198 24.5472 18.3721 24.5844 18.5482 24.5844C18.7242 24.5844 18.8983 24.5472 19.059 24.4752C19.2197 24.4033 19.3634 24.2982 19.4807 24.1668L25.434 17.5002ZM20.334 2.0835C18.7707 2.0835 17.279 2.59516 14.8723 3.4185L13.6607 3.83516C11.1923 4.6785 9.28565 5.33183 7.92232 5.88516C7.23565 6.1635 6.64398 6.43516 6.16898 6.71016C5.71065 6.97683 5.25232 7.3085 4.94065 7.7535C4.63232 8.19183 4.47232 8.73183 4.37232 9.2535C4.26732 9.7935 4.20565 10.4418 4.16398 11.1868C4.08398 12.6635 4.08398 14.6902 4.08398 17.3168V19.9852C4.08398 30.1535 11.764 35.0285 16.3307 37.0252L16.3757 37.0435C16.9423 37.2918 17.4757 37.5235 18.0873 37.6802C18.7323 37.8468 19.419 37.9168 20.334 37.9168C21.2507 37.9168 21.934 37.8468 22.5807 37.6802C23.1923 37.5235 23.7257 37.2918 24.2906 37.0435L24.3373 37.0252C28.904 35.0285 36.584 30.1535 36.584 19.9852V17.3168C36.584 14.6902 36.584 12.6635 36.504 11.1852C36.4771 10.5368 36.4075 9.89099 36.2957 9.25183C36.1956 8.73183 36.0357 8.19183 35.729 7.75183C35.4156 7.3085 34.9573 6.97683 34.499 6.71016C33.9339 6.39572 33.3481 6.12008 32.7457 5.88516C31.3823 5.33183 29.4757 4.6785 27.0073 3.83516L25.7957 3.4185C23.389 2.59516 21.8957 2.0835 20.334 2.0835ZM15.4673 5.85683C18.159 4.93683 19.2373 4.5835 20.334 4.5835C21.4307 4.5835 22.509 4.93683 25.2007 5.85683L26.154 6.1835C28.6756 7.04683 30.514 7.67683 31.804 8.20016C32.449 8.4635 32.9157 8.6835 33.244 8.8735C33.4057 8.96683 33.5173 9.0435 33.5907 9.10516C33.654 9.15516 33.679 9.18516 33.6823 9.1885C33.7041 9.22775 33.722 9.26906 33.7357 9.31183C33.769 9.40516 33.8057 9.5385 33.8407 9.72516C33.9308 10.2532 33.9865 10.7866 34.0073 11.3218C34.084 12.7235 34.084 14.6802 34.084 17.3618V19.9852C34.084 28.6102 27.634 32.8568 23.3356 34.7335C22.7173 35.0035 22.359 35.1568 21.9606 35.2585C21.5807 35.3568 21.1173 35.4168 20.334 35.4168C19.5507 35.4168 19.0873 35.3568 18.7073 35.2585C18.3073 35.1585 17.9507 35.0035 17.3323 34.7335C13.0323 32.8552 6.58398 28.6102 6.58398 19.9852V17.3618C6.58398 14.6802 6.58398 12.7235 6.66065 11.3218C6.68147 10.7866 6.73715 10.2532 6.82732 9.72516C6.86232 9.5385 6.89898 9.40516 6.93232 9.31183C6.96232 9.2285 6.98232 9.19516 6.98565 9.1885C7.01345 9.15783 7.04415 9.12993 7.07732 9.10516C7.18647 9.01827 7.30239 8.94024 7.42398 8.87183C7.75232 8.68183 8.21898 8.4635 8.86398 8.20183C10.154 7.67683 11.9923 7.04683 14.514 6.18516L15.4673 5.85683Z"
  />
</svg>