<svg xmlns="http://www.w3.org/2000/svg" fill="#8954FF" height="40" width="40" viewBox="0 0 40 40" stroke="none">
  <g>
    <path
      fill-rule="evenodd"
      clip-rule="evenOdd"
      d="M17.433 2.0835H22.5663C25.238 2.0835 27.333 2.0835 29.0063 2.24183C30.7113 2.40516 32.108 2.74183 33.3397 3.49516C34.6297 4.28554 35.7143 5.37013 36.5047 6.66016C37.258 7.89016 37.5947 9.2885 37.758 10.9935C37.9163 12.6668 37.9163 14.7618 37.9163 17.4352V19.2135C37.9163 21.1152 37.9163 22.6068 37.833 23.8118C37.7497 25.0368 37.578 26.0568 37.1863 27.0002C36.7047 28.1629 35.9988 29.2194 35.1089 30.1094C34.2189 30.9993 33.1624 31.7052 31.9997 32.1868C30.658 32.7435 29.1313 32.8668 27.038 32.9035C26.5213 32.9013 26.0047 32.9213 25.4897 32.9635C25.1597 33.0002 25.0313 33.0535 24.9563 33.0968C24.878 33.1435 24.7697 33.2268 24.583 33.4835C24.3813 33.7602 24.153 34.1435 23.7897 34.7568L22.8863 36.2835C21.598 38.4618 18.403 38.4618 17.113 36.2835L16.2097 34.7568C15.9634 34.3214 15.6987 33.8965 15.4163 33.4835C15.2297 33.2268 15.1213 33.1435 15.043 33.0968C14.968 33.0535 14.8397 33.0002 14.5097 32.9635C14.1563 32.9252 13.693 32.9135 12.9597 32.9018C10.868 32.8668 9.34134 32.7435 7.99968 32.1868C6.83692 31.7052 5.78041 30.9993 4.89047 30.1094C4.00054 29.2194 3.29462 28.1629 2.81301 27.0002C2.42134 26.0568 2.24801 25.0368 2.16467 23.8118C2.08301 22.6068 2.08301 21.1152 2.08301 19.2118V17.4352C2.08301 14.7618 2.08301 12.6685 2.24134 10.9935C2.40467 9.2885 2.74134 7.89016 3.49467 6.66016C4.28506 5.37013 5.36964 4.28554 6.65967 3.49516C7.88967 2.74183 9.28801 2.40516 10.993 2.24183C12.6663 2.0835 14.7613 2.0835 17.4347 2.0835H17.433ZM11.2313 4.73183C9.70801 4.87683 8.73968 5.1535 7.96634 5.62683C7.01252 6.21113 6.21064 7.01301 5.62634 7.96683C5.15301 8.74016 4.87634 9.7085 4.73134 11.2335C4.58467 12.7735 4.58301 14.7502 4.58301 17.5018V19.1685C4.58301 21.1268 4.58301 22.5335 4.65967 23.6435C4.73467 24.7418 4.87801 25.4585 5.12301 26.0452C5.84192 27.7807 7.2208 29.1596 8.95634 29.8785C9.81467 30.2352 10.9113 30.3685 13.0047 30.4052H13.0563C13.7197 30.4168 14.3013 30.4268 14.7847 30.4802C15.303 30.5385 15.8113 30.6535 16.2997 30.9368C16.783 31.2202 17.133 31.5952 17.4363 32.0118C17.718 32.3985 18.0063 32.8868 18.333 33.4385L19.2647 35.0118C19.3426 35.1365 19.4509 35.2393 19.5795 35.3106C19.7081 35.3819 19.8527 35.4193 19.9997 35.4193C20.1467 35.4193 20.2913 35.3819 20.4199 35.3106C20.5484 35.2393 20.6568 35.1365 20.7347 35.0118L21.6663 33.4385C21.993 32.8868 22.283 32.3985 22.563 32.0118C22.8663 31.5952 23.2163 31.2185 23.6997 30.9368C24.188 30.6535 24.6963 30.5368 25.2147 30.4802C25.698 30.4268 26.2797 30.4168 26.943 30.4052H26.9963C29.088 30.3685 30.1847 30.2352 31.043 29.8785C32.7785 29.1596 34.1574 27.7807 34.8763 26.0452C35.1213 25.4585 35.2647 24.7418 35.3397 23.6435C35.4163 22.5335 35.4163 21.1268 35.4163 19.1685V17.5018C35.4163 14.7502 35.4163 12.7735 35.268 11.2318C35.123 9.7085 34.8463 8.74016 34.373 7.96683C33.789 7.01381 32.9877 6.21253 32.0347 5.6285C31.2613 5.15516 30.293 4.8785 28.768 4.7335C27.228 4.58683 25.2513 4.58516 22.4997 4.58516H17.4997C14.748 4.58516 12.7713 4.58516 11.2297 4.7335L11.2313 4.73183ZM25.8847 14.1152C26.0008 14.2312 26.093 14.3691 26.1558 14.5208C26.2187 14.6725 26.2511 14.8351 26.2511 14.9993C26.2511 15.1636 26.2187 15.3262 26.1558 15.4779C26.093 15.6296 26.0008 15.7674 25.8847 15.8835L19.218 22.5502C18.9868 22.7817 18.6739 22.9133 18.3468 22.9167C18.0196 22.9201 17.7041 22.7951 17.468 22.5685L14.1347 19.3685C13.8955 19.1386 13.7575 18.8232 13.7509 18.4916C13.7444 18.16 13.8698 17.8393 14.0997 17.6002C14.3295 17.361 14.645 17.223 14.9766 17.2164C15.3082 17.2099 15.6289 17.3353 15.868 17.5652L18.318 19.9168L24.118 14.1168C24.3524 13.8827 24.6701 13.7513 25.0013 13.7513C25.3326 13.7513 25.6503 13.8827 25.8847 14.1168V14.1152Z"
    />
  </g>
</svg>