<svg xmlns="http://www.w3.org/2000/svg" height="40" width="40" viewBox="0 0 40 40" stroke="none">
  <path
    fill-rule="evenodd"
    clip-rule="evenOdd"
    fill="#8954FF"
    d="M19.9997 2.0835C20.3312 2.0835 20.6491 2.21519 20.8836 2.44961C21.118 2.68403 21.2497 3.00198 21.2497 3.3335V6.66683C21.2497 6.99835 21.118 7.31629 20.8836 7.55071C20.6491 7.78513 20.3312 7.91683 19.9997 7.91683C19.6682 7.91683 19.3502 7.78513 19.1158 7.55071C18.8814 7.31629 18.7497 6.99835 18.7497 6.66683V3.3335C18.7497 3.00198 18.8814 2.68403 19.1158 2.44961C19.3502 2.21519 19.6682 2.0835 19.9997 2.0835ZM30.883 9.11683C31.1171 9.3512 31.2486 9.66891 31.2486 10.0002C31.2486 10.3314 31.1171 10.6491 30.883 10.8835L30.3113 11.4552C30.0744 11.676 29.761 11.7962 29.4371 11.7905C29.1133 11.7847 28.8043 11.6536 28.5753 11.4245C28.3463 11.1955 28.2151 10.8865 28.2094 10.5627C28.2037 10.2389 28.3239 9.92546 28.5447 9.6885L29.1163 9.11683C29.3507 8.88275 29.6684 8.75126 29.9997 8.75126C30.3309 8.75126 30.6486 8.88275 30.883 9.11683ZM9.11634 9.11683C9.35072 8.88275 9.66842 8.75126 9.99967 8.75126C10.3309 8.75126 10.6486 8.88275 10.883 9.11683L11.4563 9.6885C11.6839 9.92436 11.8098 10.2402 11.8068 10.5679C11.8038 10.8957 11.6722 11.2091 11.4403 11.4408C11.2084 11.6724 10.8948 11.8037 10.5671 11.8064C10.2393 11.8091 9.92365 11.683 9.68801 11.4552L9.11634 10.8835C8.88226 10.6491 8.75077 10.3314 8.75077 10.0002C8.75077 9.66891 8.88226 9.3512 9.11634 9.11683ZM19.9063 13.1368C19.6113 13.5202 19.268 14.1318 18.7197 15.1152L18.4463 15.6052L18.3847 15.7168C18.1513 16.1368 17.878 16.6335 17.4263 16.9768C16.968 17.3268 16.413 17.4485 15.958 17.5502L15.838 17.5768L15.308 17.6968C14.2413 17.9368 13.5863 18.0902 13.1547 18.2602C13.0847 18.2856 13.0168 18.3163 12.9513 18.3518C12.9747 18.4052 13.0163 18.4835 13.083 18.5902C13.3413 19.0002 13.7913 19.5318 14.5163 20.3785L14.878 20.8018L14.958 20.8952C15.2713 21.2602 15.638 21.6835 15.808 22.2285C15.9747 22.7652 15.918 23.3235 15.868 23.8118L15.8563 23.9352L15.8013 24.4985C15.6913 25.6302 15.6263 26.3402 15.648 26.8368C15.653 26.9318 15.6597 27.0052 15.668 27.0618C15.708 27.0535 15.7547 27.0418 15.813 27.0252C16.258 26.8968 16.873 26.6168 17.873 26.1585L18.3697 25.9285L18.4813 25.8768C18.9047 25.6802 19.4247 25.4368 19.9997 25.4368C20.5747 25.4368 21.0947 25.6802 21.5163 25.8768L21.6297 25.9285L22.1263 26.1568C23.1263 26.6168 23.7413 26.8968 24.1863 27.0235C24.2447 27.0402 24.2913 27.0535 24.3313 27.0618C24.3422 26.9873 24.3489 26.9121 24.3513 26.8368C24.373 26.3402 24.3063 25.6302 24.198 24.5002L24.143 23.9352L24.1313 23.8102C24.0813 23.3235 24.0263 22.7652 24.193 22.2268C24.3613 21.6852 24.7263 21.2602 25.0413 20.8952L25.1213 20.8018L25.483 20.3785C26.208 19.5318 26.658 19.0002 26.9163 18.5902C26.983 18.4835 27.0247 18.4068 27.0497 18.3518C26.9831 18.3174 26.9147 18.2868 26.8447 18.2602C26.4113 18.0902 25.758 17.9368 24.6913 17.6968L24.1597 17.5768L24.043 17.5502C23.5863 17.4485 23.0313 17.3252 22.573 16.9768C22.123 16.6352 21.8463 16.1368 21.6147 15.7168C21.5942 15.6795 21.5737 15.6423 21.553 15.6052L21.2797 15.1152C20.7313 14.1318 20.3863 13.5202 20.093 13.1368C20.063 13.0971 20.0319 13.0582 19.9997 13.0202C19.9675 13.0582 19.9364 13.0971 19.9063 13.1368ZM27.1413 18.4135L27.1297 18.4018C27.1397 18.4085 27.143 18.4135 27.1413 18.4135ZM27.0813 18.2635C27.0813 18.2535 27.083 18.2468 27.0847 18.2468L27.0813 18.2635ZM24.4813 27.0852C24.4897 27.0818 24.4947 27.0818 24.4963 27.0835L24.4813 27.0852ZM15.6997 27.2068C15.702 27.2104 15.7036 27.2144 15.7047 27.2185C15.7047 27.2185 15.7013 27.2152 15.6997 27.2068ZM12.8697 18.4035L12.858 18.4152C12.858 18.4152 12.8597 18.4102 12.8697 18.4035ZM17.9197 11.6185C18.353 11.0552 19.0063 10.4185 19.9997 10.4185C20.993 10.4185 21.6463 11.0552 22.078 11.6185C22.4963 12.1652 22.9297 12.9418 23.418 13.8185L23.7363 14.3902C23.8456 14.5917 23.9623 14.789 24.0863 14.9818C24.2931 15.0421 24.5022 15.0943 24.713 15.1385L25.3347 15.2802C26.2797 15.4935 27.128 15.6852 27.7613 15.9352C28.4397 16.2018 29.1897 16.6568 29.478 17.5868C29.763 18.5035 29.4197 19.3068 29.033 19.9235C28.6647 20.5068 28.0897 21.1785 27.443 21.9368L27.0213 22.4285C26.8836 22.5845 26.7513 22.7451 26.6247 22.9102C26.6093 22.9306 26.5949 22.9518 26.5813 22.9735V23.0568C26.583 23.1902 26.598 23.3685 26.6313 23.6952L26.6947 24.3502C26.793 25.3618 26.878 26.2552 26.848 26.9502C26.8163 27.6668 26.648 28.5435 25.8763 29.1302C25.083 29.7335 24.188 29.6268 23.498 29.4302C22.8447 29.2418 22.0513 28.8768 21.168 28.4702L21.0797 28.4302L20.5847 28.2018C20.393 28.1095 20.1978 28.0244 19.9997 27.9468C19.8021 28.0239 19.6075 28.1084 19.4163 28.2002L18.833 28.4702C17.948 28.8768 17.1547 29.2418 16.5013 29.4302C15.8113 29.6268 14.918 29.7335 14.123 29.1302C13.3497 28.5435 13.183 27.6668 13.1513 26.9502C13.1197 26.2535 13.2063 25.3618 13.3047 24.3502L13.368 23.6952C13.4013 23.3685 13.4163 23.1902 13.418 23.0585V22.9735C13.4045 22.9518 13.39 22.9306 13.3747 22.9102C13.2481 22.745 13.1158 22.5844 12.978 22.4285L12.5563 21.9368C11.9097 21.1785 11.3347 20.5085 10.9663 19.9235C10.5797 19.3068 10.2363 18.5035 10.5213 17.5868C10.8097 16.6568 11.5597 16.2035 12.238 15.9368C12.8713 15.6868 13.7197 15.4935 14.6647 15.2802L14.7563 15.2602L15.2863 15.1402C15.4972 15.0955 15.7062 15.0426 15.913 14.9818C16.037 14.789 16.1537 14.5917 16.263 14.3902L16.5347 13.9002L16.5813 13.8185C17.0697 12.9418 17.503 12.1652 17.9213 11.6185H17.9197ZM2.08301 20.0002C2.08301 19.6686 2.2147 19.3507 2.44912 19.1163C2.68354 18.8819 3.00149 18.7502 3.33301 18.7502H6.66634C6.99786 18.7502 7.3158 18.8819 7.55023 19.1163C7.78465 19.3507 7.91634 19.6686 7.91634 20.0002C7.91634 20.3317 7.78465 20.6496 7.55023 20.884C7.3158 21.1185 6.99786 21.2502 6.66634 21.2502H3.33301C3.00149 21.2502 2.68354 21.1185 2.44912 20.884C2.2147 20.6496 2.08301 20.3317 2.08301 20.0002ZM32.083 20.0002C32.083 19.6686 32.2147 19.3507 32.4491 19.1163C32.6835 18.8819 33.0015 18.7502 33.333 18.7502H36.6663C36.9979 18.7502 37.3158 18.8819 37.5502 19.1163C37.7846 19.3507 37.9163 19.6686 37.9163 20.0002C37.9163 20.3317 37.7846 20.6496 37.5502 20.884C37.3158 21.1185 36.9979 21.2502 36.6663 21.2502H33.333C33.0015 21.2502 32.6835 21.1185 32.4491 20.884C32.2147 20.6496 32.083 20.3317 32.083 20.0002ZM11.4547 28.5452C11.6888 28.7795 11.8202 29.0972 11.8202 29.4285C11.8202 29.7597 11.6888 30.0775 11.4547 30.3118L10.883 30.8835C10.6461 31.1043 10.3326 31.2245 10.0088 31.2188C9.68497 31.2131 9.37599 31.0819 9.14697 30.8529C8.91795 30.6238 8.78676 30.3149 8.78105 29.991C8.77534 29.6672 8.89554 29.3538 9.11634 29.1168L9.68801 28.5452C9.92238 28.3111 10.2401 28.1796 10.5713 28.1796C10.9026 28.1796 11.2203 28.3111 11.4547 28.5452ZM28.543 28.5452C28.6591 28.429 28.7969 28.3369 28.9486 28.274C29.1003 28.2111 29.263 28.1788 29.4272 28.1788C29.5914 28.1788 29.754 28.2111 29.9057 28.274C30.0574 28.3369 30.1953 28.429 30.3113 28.5452L30.883 29.1168C31.1038 29.3538 31.224 29.6672 31.2183 29.991C31.2126 30.3149 31.0814 30.6238 30.8524 30.8529C30.6234 31.0819 30.3144 31.2131 29.9905 31.2188C29.6667 31.2245 29.3533 31.1043 29.1163 30.8835L28.5447 30.3118C28.3106 30.0775 28.1791 29.7597 28.1791 29.4285C28.1791 29.0972 28.3106 28.7795 28.5447 28.5452H28.543ZM19.9997 32.0835C20.3312 32.0835 20.6491 32.2152 20.8836 32.4496C21.118 32.684 21.2497 33.002 21.2497 33.3335V36.6668C21.2497 36.9984 21.118 37.3163 20.8836 37.5507C20.6491 37.7851 20.3312 37.9168 19.9997 37.9168C19.6682 37.9168 19.3502 37.7851 19.1158 37.5507C18.8814 37.3163 18.7497 36.9984 18.7497 36.6668V33.3335C18.7497 33.002 18.8814 32.684 19.1158 32.4496C19.3502 32.2152 19.6682 32.0835 19.9997 32.0835Z"
  />
</svg>