<svg xmlns="http://www.w3.org/2000/svg" fill="url(#gradient-brand)" height="40" width="40" viewBox="0 0 40 40" stroke="none">
  <g>
    <path
      fill-rule="evenodd"
      clip-rule="evenOdd"
      d="M23.6334 7.12651C23.9536 7.21209 24.2267 7.42134 24.3927 7.70826C24.5587 7.99518 24.6039 8.33626 24.5184 8.65651L17.8967 33.3732C17.8108 33.6936 17.601 33.9668 17.3136 34.1327C17.0262 34.2985 16.6847 34.3433 16.3642 34.2573C16.0438 34.1714 15.7706 33.9616 15.6048 33.6742C15.4389 33.3868 15.3941 33.0453 15.4801 32.7248L22.1034 8.00818C22.1459 7.84959 22.2193 7.70094 22.3193 7.57071C22.4193 7.44048 22.544 7.33123 22.6862 7.2492C22.8285 7.16717 22.9855 7.11397 23.1483 7.09263C23.3111 7.07129 23.4765 7.08224 23.6351 7.12485L23.6334 7.12651ZM27.4034 12.2132C27.5132 12.0909 27.646 11.9915 27.7943 11.9207C27.9425 11.8498 28.1033 11.8089 28.2674 11.8002C28.4315 11.7916 28.5956 11.8153 28.7505 11.8702C28.9054 11.925 29.048 12.0099 29.1701 12.1198L32.0651 14.7265C33.2934 15.8298 34.3101 16.7465 35.0101 17.5765C35.7434 18.4515 36.2667 19.3898 36.2667 20.5498C36.2667 21.7082 35.7451 22.6465 35.0101 23.5198C34.3101 24.3515 33.2934 25.2682 32.0651 26.3715L29.1701 28.9782C28.9236 29.2001 28.5991 29.315 28.268 29.2976C27.9368 29.2803 27.6261 29.1321 27.4042 28.8857C27.1823 28.6392 27.0674 28.3148 27.0848 27.9836C27.1021 27.6524 27.2503 27.3417 27.4967 27.1198L30.3251 24.5748C31.6384 23.3932 32.5234 22.5915 33.0967 21.9115C33.6467 21.2565 33.7667 20.8748 33.7667 20.5482C33.7667 20.2232 33.6467 19.8415 33.0967 19.1865C32.5234 18.5048 31.6384 17.7032 30.3251 16.5232L27.4967 13.9782C27.3745 13.8684 27.2751 13.7355 27.2042 13.5873C27.1334 13.439 27.0924 13.2783 27.0838 13.1142C27.0751 12.9501 27.0989 12.7859 27.1537 12.631C27.2086 12.4761 27.2934 12.3352 27.4034 12.2132ZM12.5034 13.9782C12.6254 13.8683 12.7246 13.7355 12.7953 13.5873C12.866 13.4391 12.9068 13.2784 12.9154 13.1144C12.924 12.9504 12.9002 12.7864 12.8453 12.6316C12.7905 12.4768 12.7058 12.3344 12.5959 12.2123C12.486 12.0903 12.3532 11.9911 12.205 11.9205C12.0568 11.8498 11.8961 11.809 11.7321 11.8004C11.5682 11.7918 11.4041 11.8156 11.2493 11.8704C11.0946 11.9252 10.9521 12.01 10.8301 12.1198L7.93507 14.7265C6.70673 15.8298 5.69006 16.7465 4.99006 17.5765C4.25673 18.4515 3.7334 19.3898 3.7334 20.5498C3.7334 21.7082 4.25506 22.6465 4.99006 23.5198C5.69006 24.3515 6.70673 25.2682 7.93507 26.3715L10.8301 28.9782C11.0765 29.2001 11.401 29.315 11.7321 29.2976C12.0633 29.2803 12.374 29.1321 12.5959 28.8857C12.8178 28.6392 12.9327 28.3148 12.9154 27.9836C12.898 27.6524 12.7498 27.3417 12.5034 27.1198L9.67506 24.5748C8.36173 23.3932 7.47673 22.5915 6.9034 21.9115C6.3534 21.2565 6.2334 20.8748 6.2334 20.5482C6.2334 20.2232 6.3534 19.8415 6.9034 19.1865C7.47673 18.5048 8.36173 17.7032 9.67506 16.5232L12.5034 13.9782Z"
    />
  </g>
</svg>