<svg xmlns="http://www.w3.org/2000/svg" fill="#8954FF" height="40" width="40" viewBox="0 0 40 40" stroke="none">
  <path
    fill-rule="evenodd"
    clip-rule="evenOdd"
    d="M15.6667 2.0835C13.567 2.0835 11.5534 2.91757 10.0687 4.40223C8.58408 5.8869 7.75 7.90053 7.75 10.0002C7.75 12.0998 8.58408 14.1134 10.0687 15.5981C11.5534 17.0828 13.567 17.9168 15.6667 17.9168C17.7663 17.9168 19.7799 17.0828 21.2646 15.5981C22.7493 14.1134 23.5833 12.0998 23.5833 10.0002C23.5833 7.90053 22.7493 5.8869 21.2646 4.40223C19.7799 2.91757 17.7663 2.0835 15.6667 2.0835ZM10.25 10.0002C10.25 8.56357 10.8207 7.18582 11.8365 6.17C12.8523 5.15418 14.2301 4.5835 15.6667 4.5835C17.1033 4.5835 18.481 5.15418 19.4968 6.17C20.5127 7.18582 21.0833 8.56357 21.0833 10.0002C21.0833 11.4368 20.5127 12.8145 19.4968 13.8303C18.481 14.8461 17.1033 15.4168 15.6667 15.4168C14.2301 15.4168 12.8523 14.8461 11.8365 13.8303C10.8207 12.8145 10.25 11.4368 10.25 10.0002ZM25.6667 3.75016C25.3351 3.75016 25.0172 3.88186 24.7828 4.11628C24.5484 4.3507 24.4167 4.66864 24.4167 5.00016C24.4167 5.33168 24.5484 5.64963 24.7828 5.88405C25.0172 6.11847 25.3351 6.25016 25.6667 6.25016C26.6612 6.25016 27.6151 6.64525 28.3183 7.34851C29.0216 8.05177 29.4167 9.0056 29.4167 10.0002C29.4167 10.9947 29.0216 11.9486 28.3183 12.6518C27.6151 13.3551 26.6612 13.7502 25.6667 13.7502C25.3351 13.7502 25.0172 13.8819 24.7828 14.1163C24.5484 14.3507 24.4167 14.6686 24.4167 15.0002C24.4167 15.3317 24.5484 15.6496 24.7828 15.884C25.0172 16.1185 25.3351 16.2502 25.6667 16.2502C27.3243 16.2502 28.914 15.5917 30.0861 14.4196C31.2582 13.2475 31.9167 11.6578 31.9167 10.0002C31.9167 8.34256 31.2582 6.75285 30.0861 5.58075C28.914 4.40864 27.3243 3.75016 25.6667 3.75016ZM6.79667 22.5335C9.13 21.2002 12.2683 20.4168 15.6667 20.4168C19.0667 20.4168 22.2033 21.2002 24.5367 22.5335C26.8333 23.8468 28.5833 25.8502 28.5833 28.3335C28.5833 30.8168 26.8333 32.8202 24.5367 34.1335C22.2033 35.4668 19.065 36.2502 15.6667 36.2502C12.2667 36.2502 9.13 35.4668 6.79667 34.1335C4.5 32.8202 2.75 30.8168 2.75 28.3335C2.75 25.8502 4.5 23.8468 6.79667 22.5335ZM8.03667 24.7052C6.11167 25.8052 5.25 27.1335 5.25 28.3335C5.25 29.5335 6.11167 30.8618 8.03667 31.9618C9.92667 33.0418 12.6217 33.7502 15.6667 33.7502C18.7117 33.7502 21.4067 33.0418 23.2967 31.9618C25.2217 30.8618 26.0833 29.5318 26.0833 28.3335C26.0833 27.1335 25.2217 25.8052 23.2967 24.7052C21.4067 23.6252 18.7117 22.9168 15.6667 22.9168C12.6217 22.9168 9.92667 23.6252 8.03667 24.7052ZM30.9333 22.1118C30.6093 22.0411 30.2705 22.102 29.9914 22.2811C29.7123 22.4602 29.5157 22.7428 29.445 23.0668C29.3743 23.3908 29.4352 23.7297 29.6143 24.0088C29.7934 24.2879 30.076 24.4844 30.4 24.5552C31.72 24.8435 32.775 25.3418 33.4717 25.9118C34.1683 26.4818 34.4167 27.0402 34.4167 27.5002C34.4167 27.9168 34.2167 28.4085 33.6617 28.9235C33.1033 29.4418 32.245 29.9202 31.14 30.2535C30.9827 30.3008 30.8363 30.3786 30.7091 30.4824C30.5819 30.5863 30.4765 30.7142 30.3987 30.8588C30.3209 31.0034 30.2724 31.162 30.2559 31.3253C30.2394 31.4887 30.2552 31.6537 30.3025 31.811C30.3498 31.9683 30.4276 32.1147 30.5314 32.2419C30.6353 32.3691 30.7632 32.4745 30.9078 32.5523C31.0524 32.6301 31.211 32.6786 31.3743 32.6951C31.5377 32.7116 31.7027 32.6958 31.86 32.6485C33.2317 32.2352 34.4567 31.5968 35.3633 30.7552C36.2733 29.9102 36.9167 28.7985 36.9167 27.5002C36.9167 26.0585 36.1267 24.8535 35.055 23.9768C33.9817 23.0985 32.5367 22.4635 30.9333 22.1118Z"
  />
</svg>