<svg width="897" height="854" fill="none" xmlns="http://www.w3.org/2000/svg">
    <path fill-rule="evenodd" clip-rule="evenodd"
          d="M718.788 155.563c-1.438 5.368-6.956 8.554-12.324 7.116-5.368-1.439-8.553-6.956-7.115-12.324 1.438-5.368 6.956-8.554 12.324-7.116 5.368 1.439 8.553 6.956 7.115 12.324zM252.248 30.554c-1.438 5.368-6.956 8.554-12.324 7.116-5.368-1.439-8.553-6.956-7.115-12.324 1.439-5.368 6.956-8.554 12.324-7.116 5.368 1.439 8.554 6.956 7.115 12.324zm-70.641-8.51c5.368 1.438 10.885-1.748 12.324-7.116 1.438-5.368-1.747-10.885-7.115-12.324-5.368-1.438-10.886 1.748-12.324 7.116-1.439 5.368 1.747 10.885 7.115 12.324zM165.981 80.36c5.368 1.438 10.885-1.747 12.324-7.115 1.438-5.368-1.748-10.886-7.116-12.324-5.368-1.438-10.885 1.747-12.324 7.115-1.438 5.368 1.748 10.886 7.116 12.324zm-3.302 51.202c-1.439 5.368-6.956 8.554-12.324 7.115-5.368-1.438-8.554-6.955-7.116-12.323 1.439-5.368 6.956-8.554 12.324-7.116 5.368 1.439 8.554 6.956 7.116 12.324zm-27.95 65.433c5.368 1.438 10.885-1.747 12.323-7.115 1.439-5.368-1.747-10.886-7.115-12.324-5.368-1.439-10.885 1.747-12.324 7.115-1.438 5.368 1.748 10.886 7.116 12.324zm-3.303 51.202c-1.438 5.368-6.956 8.554-12.324 7.115-5.368-1.438-8.553-6.956-7.115-12.324 1.438-5.367 6.956-8.553 12.324-7.115 5.368 1.439 8.554 6.956 7.115 12.324zm-27.95 65.433c5.368 1.438 10.886-1.747 12.324-7.115 1.439-5.368-1.747-10.886-7.115-12.324-5.368-1.439-10.886 1.747-12.324 7.115-1.438 5.368 1.747 10.886 7.115 12.324zm-3.302 51.202c-1.438 5.368-6.956 8.554-12.324 7.115-5.368-1.438-8.553-6.956-7.115-12.324 1.438-5.368 6.956-8.553 12.324-7.115 5.368 1.439 8.553 6.956 7.115 12.324zm-27.95 65.433c5.368 1.438 10.886-1.747 12.324-7.115 1.438-5.368-1.747-10.886-7.115-12.324-5.368-1.439-10.886 1.747-12.324 7.115-1.438 5.368 1.747 10.885 7.115 12.324zm-3.302 51.202c-1.438 5.368-6.956 8.554-12.324 7.115-5.368-1.438-8.553-6.956-7.115-12.324 1.438-5.368 6.956-8.553 12.324-7.115 5.368 1.438 8.553 6.956 7.115 12.324zm-27.95 65.433c5.368 1.438 10.885-1.747 12.324-7.115 1.438-5.368-1.748-10.886-7.115-12.324-5.368-1.439-10.886 1.747-12.324 7.115-1.439 5.368 1.747 10.885 7.115 12.324zm-3.302 51.202c-1.439 5.368-6.956 8.554-12.324 7.115-5.368-1.438-8.554-6.956-7.116-12.324 1.439-5.368 6.956-8.553 12.324-7.115 5.368 1.438 8.554 6.956 7.116 12.324zM9.72 663.536c5.367 1.438 10.885-1.748 12.323-7.116 1.439-5.367-1.747-10.885-7.115-12.323-5.368-1.439-10.885 1.747-12.324 7.115-1.438 5.368 1.748 10.885 7.116 12.324zM224.298 95.987c5.368 1.439 10.886-1.747 12.324-7.115 1.439-5.368-1.747-10.886-7.115-12.324-5.368-1.438-10.886 1.747-12.324 7.115-1.438 5.368 1.747 10.886 7.115 12.324zm-3.302 51.202c-1.438 5.368-6.956 8.554-12.324 7.116-5.368-1.439-8.553-6.956-7.115-12.324 1.438-5.368 6.956-8.554 12.324-7.116 5.368 1.439 8.553 6.956 7.115 12.324zm-27.95 65.433c5.368 1.438 10.886-1.747 12.324-7.115 1.438-5.368-1.747-10.886-7.115-12.324-5.368-1.438-10.886 1.747-12.324 7.115-1.438 5.368 1.747 10.886 7.115 12.324zm-3.302 51.202c-1.439 5.368-6.956 8.554-12.324 7.116-5.368-1.439-8.554-6.956-7.115-12.324 1.438-5.368 6.956-8.554 12.324-7.116 5.368 1.439 8.553 6.956 7.115 12.324zm-27.95 65.433c5.368 1.438 10.885-1.747 12.324-7.115 1.438-5.368-1.748-10.886-7.116-12.324-5.368-1.439-10.885 1.747-12.323 7.115-1.439 5.368 1.747 10.886 7.115 12.324zm-3.303 51.202c-1.438 5.368-6.955 8.554-12.323 7.115-5.368-1.438-8.554-6.956-7.116-12.323 1.439-5.368 6.956-8.554 12.324-7.116 5.368 1.439 8.554 6.956 7.115 12.324zm-27.949 65.433c5.368 1.438 10.885-1.747 12.323-7.115 1.439-5.368-1.747-10.886-7.115-12.324-5.368-1.439-10.885 1.747-12.324 7.115-1.438 5.368 1.748 10.886 7.116 12.324zm-3.303 51.202c-1.438 5.368-6.956 8.554-12.324 7.115-5.368-1.438-8.553-6.956-7.115-12.324 1.439-5.368 6.956-8.553 12.324-7.115 5.368 1.439 8.554 6.956 7.115 12.324zm-27.95 65.433c5.368 1.438 10.886-1.747 12.324-7.115 1.438-5.368-1.747-10.886-7.115-12.324-5.368-1.439-10.886 1.747-12.324 7.115-1.438 5.368 1.747 10.885 7.115 12.324zm-3.302 51.202c-1.438 5.368-6.956 8.554-12.324 7.115-5.368-1.438-8.553-6.956-7.115-12.324 1.438-5.368 6.956-8.553 12.324-7.115 5.368 1.439 8.553 6.956 7.115 12.324zm-27.95 65.433c5.368 1.438 10.886-1.747 12.324-7.115 1.438-5.368-1.747-10.886-7.115-12.324-5.368-1.439-10.886 1.747-12.324 7.115-1.438 5.368 1.747 10.885 7.115 12.324zM310.566 46.181c-1.439 5.367-6.956 8.553-12.324 7.115-5.368-1.438-8.554-6.956-7.115-12.324 1.438-5.368 6.956-8.554 12.323-7.115 5.368 1.438 8.554 6.956 7.116 12.324zm-27.95 65.432c5.368 1.439 10.885-1.747 12.324-7.115 1.438-5.368-1.748-10.886-7.116-12.324-5.367-1.438-10.885 1.747-12.323 7.115-1.439 5.368 1.747 10.886 7.115 12.324zm-3.302 51.203c-1.439 5.367-6.956 8.553-12.324 7.115-5.368-1.439-8.554-6.956-7.116-12.324 1.439-5.368 6.956-8.554 12.324-7.115 5.368 1.438 8.554 6.956 7.116 12.324zm-27.951 65.432c5.368 1.439 10.886-1.747 12.324-7.115 1.439-5.368-1.747-10.886-7.115-12.324-5.368-1.438-10.885 1.747-12.324 7.115-1.438 5.368 1.747 10.886 7.115 12.324zm-3.302 51.202c-1.438 5.368-6.956 8.554-12.324 7.116-5.368-1.439-8.553-6.956-7.115-12.324 1.438-5.368 6.956-8.554 12.324-7.115 5.368 1.438 8.554 6.955 7.115 12.323zm-27.95 65.433c5.368 1.438 10.886-1.747 12.324-7.115 1.439-5.368-1.747-10.886-7.115-12.324-5.368-1.438-10.886 1.747-12.324 7.115-1.438 5.368 1.747 10.886 7.115 12.324zm-3.302 51.202c-1.438 5.368-6.956 8.554-12.324 7.116-5.368-1.439-8.553-6.956-7.115-12.324 1.438-5.368 6.956-8.554 12.324-7.116 5.368 1.439 8.553 6.956 7.115 12.324zm-27.95 65.433c5.368 1.438 10.886-1.747 12.324-7.115 1.438-5.368-1.747-10.886-7.115-12.324-5.368-1.438-10.886 1.747-12.324 7.115-1.439 5.368 1.747 10.886 7.115 12.324zm-3.302 51.202c-1.438 5.368-6.956 8.554-12.324 7.115-5.368-1.438-8.554-6.955-7.115-12.323 1.438-5.368 6.956-8.554 12.324-7.116 5.368 1.439 8.553 6.956 7.115 12.324zm-27.95 65.433c5.368 1.438 10.885-1.747 12.324-7.115 1.438-5.368-1.748-10.886-7.116-12.324-5.368-1.439-10.885 1.747-12.323 7.115-1.439 5.368 1.747 10.886 7.115 12.324zm-3.302 51.202c-1.439 5.368-6.956 8.554-12.324 7.115-5.368-1.438-8.554-6.955-7.116-12.323 1.439-5.368 6.956-8.554 12.324-7.116 5.368 1.439 8.554 6.956 7.116 12.324zm-27.95 65.433c5.368 1.438 10.885-1.747 12.324-7.115 1.438-5.368-1.748-10.886-7.116-12.324-5.368-1.439-10.885 1.747-12.324 7.115-1.438 5.368 1.748 10.886 7.116 12.324zM368.883 61.807c-1.438 5.368-6.956 8.553-12.324 7.115-5.368-1.438-8.553-6.956-7.115-12.324 1.438-5.368 6.956-8.554 12.324-7.115 5.368 1.438 8.554 6.956 7.115 12.324zm-27.95 65.432c5.368 1.439 10.886-1.747 12.324-7.115 1.438-5.368-1.747-10.885-7.115-12.324-5.368-1.438-10.886 1.747-12.324 7.115-1.438 5.368 1.747 10.886 7.115 12.324zm-3.302 51.203c-1.438 5.368-6.956 8.553-12.324 7.115-5.368-1.439-8.554-6.956-7.115-12.324 1.438-5.368 6.956-8.554 12.324-7.115 5.368 1.438 8.553 6.956 7.115 12.324zm-27.95 65.432c5.368 1.439 10.886-1.747 12.324-7.115 1.438-5.368-1.747-10.886-7.115-12.324-5.368-1.438-10.886 1.747-12.324 7.115-1.439 5.368 1.747 10.886 7.115 12.324zm-3.302 51.203c-1.439 5.368-6.956 8.553-12.324 7.115-5.368-1.439-8.554-6.956-7.115-12.324 1.438-5.368 6.956-8.554 12.323-7.115 5.368 1.438 8.554 6.956 7.116 12.324zm-27.95 65.432c5.368 1.439 10.885-1.747 12.324-7.115 1.438-5.368-1.748-10.886-7.116-12.324-5.368-1.438-10.885 1.747-12.324 7.115-1.438 5.368 1.748 10.886 7.116 12.324zm-3.302 51.202c-1.439 5.368-6.956 8.554-12.324 7.116-5.368-1.439-8.554-6.956-7.116-12.324 1.439-5.368 6.956-8.554 12.324-7.115 5.368 1.438 8.554 6.955 7.116 12.323zm-27.951 65.433c5.368 1.439 10.886-1.747 12.324-7.115 1.439-5.368-1.747-10.886-7.115-12.324-5.368-1.438-10.885 1.747-12.324 7.115-1.438 5.368 1.747 10.886 7.115 12.324zm-3.302 51.202c-1.438 5.368-6.956 8.554-12.324 7.116-5.368-1.439-8.553-6.956-7.115-12.324 1.438-5.368 6.956-8.554 12.324-7.116 5.368 1.439 8.554 6.956 7.115 12.324zm-27.95 65.433c5.368 1.438 10.886-1.747 12.324-7.115 1.439-5.368-1.747-10.886-7.115-12.324-5.368-1.438-10.886 1.747-12.324 7.115-1.438 5.368 1.747 10.886 7.115 12.324zm-3.302 51.202c-1.438 5.368-6.956 8.554-12.324 7.116-5.368-1.439-8.553-6.956-7.115-12.324 1.438-5.368 6.956-8.554 12.324-7.116 5.368 1.439 8.553 6.956 7.115 12.324zm-27.95 65.433c5.368 1.438 10.886-1.747 12.324-7.115 1.438-5.368-1.747-10.886-7.115-12.324-5.368-1.438-10.886 1.747-12.324 7.115-1.439 5.368 1.747 10.886 7.115 12.324zM427.201 77.433c-1.439 5.368-6.956 8.553-12.324 7.115-5.368-1.438-8.554-6.956-7.115-12.324 1.438-5.368 6.956-8.554 12.324-7.115 5.368 1.438 8.553 6.956 7.115 12.324zm-27.95 65.432c5.368 1.439 10.885-1.747 12.323-7.115 1.439-5.368-1.747-10.885-7.115-12.324-5.368-1.438-10.885 1.748-12.324 7.116-1.438 5.368 1.748 10.885 7.116 12.323zm-3.303 51.203c-1.438 5.368-6.956 8.553-12.324 7.115-5.367-1.438-8.553-6.956-7.115-12.324 1.439-5.368 6.956-8.554 12.324-7.115 5.368 1.438 8.554 6.956 7.115 12.324zM367.999 259.5c5.367 1.439 10.885-1.747 12.323-7.115 1.439-5.368-1.747-10.885-7.115-12.324-5.368-1.438-10.885 1.748-12.324 7.116-1.438 5.367 1.748 10.885 7.116 12.323zm-3.303 51.203c-1.438 5.368-6.956 8.553-12.324 7.115-5.368-1.438-8.553-6.956-7.115-12.324 1.438-5.368 6.956-8.554 12.324-7.115 5.368 1.438 8.553 6.956 7.115 12.324zm-27.95 65.432c5.368 1.439 10.886-1.747 12.324-7.115 1.438-5.368-1.747-10.885-7.115-12.324-5.368-1.438-10.886 1.747-12.324 7.115-1.438 5.368 1.747 10.886 7.115 12.324zm-3.302 51.203c-1.438 5.368-6.956 8.553-12.324 7.115-5.368-1.439-8.554-6.956-7.115-12.324 1.438-5.368 6.956-8.554 12.324-7.115 5.368 1.438 8.553 6.956 7.115 12.324zm-27.95 65.432c5.368 1.439 10.886-1.747 12.324-7.115 1.438-5.368-1.747-10.886-7.115-12.324-5.368-1.438-10.886 1.747-12.324 7.115-1.439 5.368 1.747 10.886 7.115 12.324zm-3.302 51.202c-1.439 5.368-6.956 8.554-12.324 7.116-5.368-1.439-8.554-6.956-7.115-12.324 1.438-5.368 6.956-8.554 12.324-7.115 5.368 1.438 8.553 6.956 7.115 12.323zm-27.95 65.433c5.368 1.439 10.885-1.747 12.324-7.115 1.438-5.368-1.748-10.886-7.116-12.324-5.368-1.438-10.885 1.747-12.324 7.115-1.438 5.368 1.748 10.886 7.116 12.324zm-3.302 51.202c-1.439 5.368-6.956 8.554-12.324 7.116-5.368-1.439-8.554-6.956-7.116-12.324 1.439-5.368 6.956-8.554 12.324-7.115 5.368 1.438 8.554 6.956 7.116 12.323zm-27.951 65.433c5.368 1.438 10.886-1.747 12.324-7.115 1.439-5.368-1.747-10.886-7.115-12.324-5.368-1.438-10.885 1.747-12.324 7.115-1.438 5.368 1.748 10.886 7.115 12.324zM485.518 93.059c-1.438 5.368-6.956 8.553-12.324 7.115-5.368-1.438-8.554-6.956-7.115-12.324 1.438-5.368 6.956-8.553 12.324-7.115 5.368 1.438 8.553 6.956 7.115 12.324zm-27.95 65.433c5.368 1.438 10.886-1.748 12.324-7.116 1.438-5.368-1.747-10.885-7.115-12.324-5.368-1.438-10.886 1.748-12.324 7.116-1.439 5.368 1.747 10.885 7.115 12.324zm-3.302 51.202c-1.438 5.368-6.956 8.553-12.324 7.115-5.368-1.438-8.554-6.956-7.115-12.324 1.438-5.368 6.956-8.553 12.324-7.115 5.368 1.438 8.553 6.956 7.115 12.324zm-27.95 65.433c5.368 1.438 10.885-1.748 12.324-7.116 1.438-5.368-1.748-10.885-7.116-12.324-5.368-1.438-10.885 1.748-12.324 7.116-1.438 5.368 1.748 10.885 7.116 12.324zm-3.302 51.202c-1.439 5.368-6.956 8.553-12.324 7.115-5.368-1.438-8.554-6.956-7.116-12.324 1.439-5.368 6.956-8.553 12.324-7.115 5.368 1.438 8.554 6.956 7.116 12.324zm-27.95 65.432c5.368 1.439 10.885-1.747 12.324-7.115 1.438-5.368-1.748-10.885-7.116-12.324-5.368-1.438-10.885 1.748-12.324 7.116-1.438 5.367 1.748 10.885 7.116 12.323zm-3.303 51.203c-1.438 5.368-6.956 8.553-12.324 7.115-5.368-1.438-8.553-6.956-7.115-12.324 1.438-5.368 6.956-8.554 12.324-7.115 5.368 1.438 8.554 6.956 7.115 12.324zm-27.95 65.432c5.368 1.439 10.886-1.747 12.324-7.115 1.439-5.368-1.747-10.885-7.115-12.324-5.368-1.438-10.886 1.747-12.324 7.115-1.438 5.368 1.747 10.886 7.115 12.324zm-3.302 51.203c-1.438 5.368-6.956 8.553-12.324 7.115-5.368-1.439-8.553-6.956-7.115-12.324 1.438-5.368 6.956-8.554 12.324-7.115 5.368 1.438 8.554 6.956 7.115 12.324zm-27.95 65.432c5.368 1.439 10.886-1.747 12.324-7.115 1.438-5.368-1.747-10.885-7.115-12.324-5.368-1.438-10.886 1.747-12.324 7.115-1.438 5.368 1.747 10.886 7.115 12.324zm-3.302 51.203c-1.438 5.368-6.956 8.553-12.324 7.115-5.368-1.439-8.554-6.956-7.115-12.324 1.438-5.368 6.956-8.554 12.324-7.115 5.368 1.438 8.553 6.956 7.115 12.324zm-27.95 65.432c5.368 1.439 10.885-1.747 12.324-7.115 1.438-5.368-1.747-10.886-7.115-12.324-5.368-1.438-10.886 1.747-12.324 7.115-1.439 5.368 1.747 10.886 7.115 12.324zm242.528-632.981c-1.438 5.368-6.955 8.554-12.323 7.115-5.368-1.438-8.554-6.956-7.116-12.324 1.439-5.368 6.956-8.553 12.324-7.115 5.368 1.438 8.554 6.956 7.115 12.324zm-27.949 65.433c5.368 1.438 10.885-1.748 12.323-7.115 1.439-5.368-1.747-10.886-7.115-12.324-5.368-1.439-10.885 1.747-12.324 7.115-1.438 5.368 1.748 10.885 7.116 12.324zm-3.302 51.202c-1.439 5.368-6.956 8.554-12.324 7.115-5.368-1.438-8.554-6.956-7.116-12.324 1.439-5.368 6.956-8.553 12.324-7.115 5.368 1.438 8.554 6.956 7.116 12.324zm-27.951 65.433c5.368 1.438 10.886-1.748 12.324-7.116 1.438-5.368-1.747-10.885-7.115-12.324-5.368-1.438-10.886 1.748-12.324 7.116-1.438 5.368 1.747 10.885 7.115 12.324zm-3.302 51.202c-1.438 5.368-6.956 8.553-12.324 7.115-5.368-1.438-8.553-6.956-7.115-12.324 1.438-5.368 6.956-8.553 12.324-7.115 5.368 1.438 8.553 6.956 7.115 12.324zm-27.95 65.433c5.368 1.438 10.886-1.748 12.324-7.116 1.439-5.368-1.747-10.885-7.115-12.324-5.368-1.438-10.886 1.748-12.324 7.116-1.438 5.368 1.747 10.885 7.115 12.324zm-3.302 51.202c-1.438 5.368-6.956 8.553-12.324 7.115-5.368-1.438-8.554-6.956-7.115-12.324 1.438-5.368 6.956-8.553 12.324-7.115 5.368 1.438 8.553 6.956 7.115 12.324zm-27.95 65.432c5.368 1.439 10.885-1.747 12.324-7.115 1.438-5.368-1.747-10.885-7.115-12.324-5.368-1.438-10.886 1.748-12.324 7.116-1.439 5.368 1.747 10.885 7.115 12.323zm-3.302 51.203c-1.439 5.368-6.956 8.553-12.324 7.115-5.368-1.438-8.554-6.956-7.115-12.324 1.438-5.368 6.956-8.554 12.324-7.115 5.368 1.438 8.553 6.956 7.115 12.324zm-27.95 65.432c5.368 1.439 10.885-1.747 12.323-7.115 1.439-5.368-1.747-10.885-7.115-12.324-5.368-1.438-10.885 1.748-12.324 7.116-1.438 5.368 1.748 10.885 7.116 12.323zm-3.303 51.203c-1.438 5.368-6.955 8.553-12.323 7.115-5.368-1.438-8.554-6.956-7.116-12.324 1.439-5.368 6.956-8.554 12.324-7.115 5.368 1.438 8.554 6.956 7.115 12.324zm-27.949 65.432c5.368 1.439 10.885-1.747 12.323-7.115 1.439-5.368-1.747-10.885-7.115-12.324-5.368-1.438-10.885 1.748-12.324 7.115-1.438 5.368 1.748 10.886 7.116 12.324zm242.528-632.981c-1.438 5.368-6.956 8.554-12.324 7.115-5.368-1.438-8.553-6.956-7.115-12.324 1.438-5.368 6.956-8.553 12.324-7.115 5.368 1.439 8.553 6.956 7.115 12.324zm45.994 22.742c5.368 1.438 10.885-1.748 12.324-7.116 1.438-5.368-1.748-10.885-7.116-12.324-5.368-1.438-10.885 1.748-12.324 7.116-1.438 5.368 1.748 10.885 7.116 12.324zm116.634 31.252c5.368 1.438 10.886-1.748 12.324-7.115 1.439-5.368-1.747-10.886-7.115-12.324-5.368-1.439-10.885 1.747-12.324 7.115-1.438 5.368 1.747 10.885 7.115 12.324zm70.642 8.511c-1.439 5.368-6.956 8.553-12.324 7.115-5.368-1.438-8.554-6.956-7.115-12.324 1.438-5.368 6.956-8.554 12.324-7.115 5.368 1.438 8.553 6.956 7.115 12.324zm45.993 22.741c5.368 1.438 10.886-1.747 12.324-7.115 1.439-5.368-1.747-10.886-7.115-12.324-5.368-1.439-10.885 1.747-12.324 7.115-1.438 5.368 1.748 10.886 7.115 12.324zm-294.889-26.928c-1.438 5.368-6.956 8.553-12.324 7.115-5.368-1.439-8.553-6.956-7.115-12.324 1.438-5.368 6.956-8.554 12.324-7.115 5.368 1.438 8.553 6.956 7.115 12.324zm45.994 22.741c5.368 1.438 10.885-1.747 12.324-7.115 1.438-5.368-1.748-10.886-7.116-12.324-5.368-1.439-10.885 1.747-12.324 7.115-1.438 5.368 1.748 10.886 7.116 12.324zm70.641 8.511c-1.439 5.368-6.956 8.553-12.324 7.115-5.368-1.438-8.554-6.956-7.115-12.324 1.438-5.368 6.956-8.553 12.324-7.115 5.368 1.438 8.553 6.956 7.115 12.324zm45.993 22.741c5.368 1.439 10.886-1.747 12.324-7.115 1.439-5.368-1.747-10.886-7.115-12.324-5.368-1.438-10.885 1.747-12.324 7.115-1.438 5.368 1.747 10.886 7.115 12.324zm70.642 8.511c-1.438 5.368-6.956 8.554-12.324 7.115-5.368-1.438-8.554-6.956-7.115-12.324 1.438-5.368 6.956-8.553 12.324-7.115 5.368 1.439 8.553 6.956 7.115 12.324zm45.993 22.741c5.368 1.439 10.886-1.747 12.324-7.115 1.439-5.368-1.747-10.885-7.115-12.324-5.368-1.438-10.885 1.748-12.324 7.116-1.438 5.367 1.748 10.885 7.115 12.323zm-294.889-26.928c-1.439 5.368-6.956 8.554-12.324 7.115-5.368-1.438-8.554-6.956-7.115-12.324 1.438-5.368 6.955-8.553 12.323-7.115 5.368 1.438 8.554 6.956 7.116 12.324zm45.993 22.741c5.368 1.439 10.886-1.747 12.324-7.115 1.439-5.368-1.747-10.885-7.115-12.324-5.368-1.438-10.886 1.748-12.324 7.116-1.438 5.367 1.747 10.885 7.115 12.323zm70.642 8.511c-1.439 5.368-6.956 8.554-12.324 7.116-5.368-1.439-8.554-6.956-7.115-12.324 1.438-5.368 6.956-8.554 12.324-7.116 5.368 1.439 8.553 6.956 7.115 12.324zm45.993 22.742c5.368 1.438 10.886-1.748 12.324-7.116 1.439-5.368-1.747-10.885-7.115-12.323-5.368-1.439-10.885 1.747-12.324 7.115-1.438 5.368 1.747 10.885 7.115 12.324zm70.642 8.511c-1.438 5.368-6.956 8.553-12.324 7.115-5.368-1.439-8.554-6.956-7.115-12.324 1.438-5.368 6.956-8.554 12.324-7.115 5.368 1.438 8.553 6.956 7.115 12.324zm45.993 22.741c5.368 1.438 10.886-1.747 12.324-7.115 1.438-5.368-1.747-10.886-7.115-12.324-5.368-1.439-10.886 1.747-12.324 7.115-1.438 5.368 1.747 10.886 7.115 12.324zm-294.889-26.928c-1.439 5.368-6.956 8.553-12.324 7.115-5.368-1.439-8.554-6.956-7.115-12.324 1.438-5.368 6.955-8.554 12.323-7.115 5.368 1.438 8.554 6.956 7.116 12.324zm45.993 22.741c5.368 1.438 10.886-1.747 12.324-7.115 1.439-5.368-1.747-10.886-7.115-12.324-5.368-1.439-10.886 1.747-12.324 7.115-1.438 5.368 1.747 10.886 7.115 12.324zm70.642 8.511c-1.439 5.368-6.956 8.553-12.324 7.115-5.368-1.438-8.554-6.956-7.115-12.324 1.438-5.368 6.956-8.553 12.324-7.115 5.368 1.438 8.553 6.956 7.115 12.324zm45.993 22.741c5.368 1.438 10.886-1.747 12.324-7.115 1.438-5.368-1.747-10.886-7.115-12.324-5.368-1.438-10.886 1.747-12.324 7.115-1.439 5.368 1.747 10.886 7.115 12.324zm70.641 8.511c-1.438 5.368-6.955 8.554-12.323 7.115-5.368-1.438-8.554-6.956-7.116-12.324 1.439-5.368 6.956-8.553 12.324-7.115 5.368 1.438 8.554 6.956 7.115 12.324zm45.994 22.741c5.368 1.439 10.886-1.747 12.324-7.115 1.438-5.368-1.747-10.885-7.115-12.324-5.368-1.438-10.886 1.747-12.324 7.115-1.438 5.368 1.747 10.886 7.115 12.324zm-294.889-26.928c-1.439 5.368-6.956 8.554-12.324 7.115-5.368-1.438-8.554-6.956-7.115-12.324 1.438-5.368 6.955-8.553 12.323-7.115 5.368 1.438 8.554 6.956 7.116 12.324zm45.993 22.741c5.368 1.439 10.886-1.747 12.324-7.115 1.439-5.368-1.747-10.885-7.115-12.324-5.368-1.438-10.886 1.747-12.324 7.115-1.438 5.368 1.747 10.886 7.115 12.324zm70.641 8.511c-1.438 5.368-6.955 8.554-12.324 7.115-5.367-1.438-8.553-6.955-7.115-12.323 1.439-5.368 6.956-8.554 12.324-7.116 5.368 1.439 8.554 6.956 7.115 12.324zm45.994 22.742c5.368 1.438 10.886-1.748 12.324-7.116 1.438-5.368-1.747-10.885-7.115-12.324-5.368-1.438-10.886 1.748-12.324 7.116-1.439 5.368 1.747 10.885 7.115 12.324zm70.641 8.51c-1.438 5.368-6.955 8.554-12.323 7.116-5.368-1.439-8.554-6.956-7.116-12.324 1.439-5.368 6.956-8.554 12.324-7.115 5.368 1.438 8.554 6.956 7.115 12.323zm45.994 22.742c5.368 1.438 10.886-1.747 12.324-7.115 1.438-5.368-1.747-10.886-7.115-12.324-5.368-1.439-10.886 1.747-12.324 7.115-1.438 5.368 1.747 10.885 7.115 12.324zm-294.89-26.929c-1.438 5.368-6.956 8.554-12.324 7.116-5.368-1.439-8.553-6.956-7.115-12.324 1.439-5.368 6.956-8.554 12.324-7.115 5.368 1.438 8.554 6.955 7.115 12.323zm45.994 22.742c5.368 1.438 10.886-1.747 12.324-7.115 1.438-5.368-1.747-10.886-7.115-12.324-5.368-1.439-10.886 1.747-12.324 7.115-1.439 5.368 1.747 10.885 7.115 12.324zm70.641 8.511c-1.438 5.368-6.955 8.553-12.323 7.115-5.368-1.438-8.554-6.956-7.116-12.324 1.439-5.368 6.956-8.554 12.324-7.115 5.368 1.438 8.554 6.956 7.115 12.324zm45.994 22.741c5.368 1.438 10.886-1.747 12.324-7.115 1.438-5.368-1.747-10.886-7.115-12.324-5.368-1.438-10.886 1.747-12.324 7.115-1.439 5.368 1.747 10.886 7.115 12.324zm70.642 8.511c-1.439 5.368-6.956 8.553-12.324 7.115-5.368-1.438-8.554-6.956-7.116-12.324 1.439-5.368 6.956-8.553 12.324-7.115 5.368 1.438 8.554 6.956 7.116 12.324zm45.993 22.741c5.368 1.439 10.885-1.747 12.324-7.115 1.438-5.368-1.748-10.886-7.116-12.324-5.368-1.438-10.885 1.747-12.323 7.115-1.439 5.368 1.747 10.886 7.115 12.324zm-294.89-26.928c-1.438 5.368-6.956 8.554-12.324 7.115-5.368-1.438-8.553-6.956-7.115-12.324 1.439-5.368 6.956-8.553 12.324-7.115 5.368 1.438 8.554 6.956 7.115 12.324zm45.994 22.741c5.368 1.439 10.886-1.747 12.324-7.115 1.438-5.368-1.747-10.886-7.115-12.324-5.368-1.438-10.886 1.747-12.324 7.115-1.439 5.368 1.747 10.886 7.115 12.324zm70.641 8.511c-1.438 5.368-6.955 8.554-12.323 7.115-5.368-1.438-8.554-6.956-7.116-12.324 1.439-5.368 6.956-8.553 12.324-7.115 5.368 1.439 8.554 6.956 7.115 12.324zm45.994 22.742c5.368 1.438 10.885-1.748 12.324-7.116 1.438-5.368-1.748-10.885-7.116-12.324-5.368-1.438-10.885 1.748-12.324 7.116-1.438 5.368 1.748 10.885 7.116 12.324zm70.641 8.51c-1.438 5.368-6.956 8.554-12.324 7.116-5.368-1.439-8.553-6.956-7.115-12.324 1.438-5.368 6.956-8.554 12.324-7.116 5.368 1.439 8.553 6.956 7.115 12.324zm45.994 22.742c5.368 1.438 10.885-1.748 12.324-7.115 1.438-5.368-1.748-10.886-7.116-12.324-5.367-1.439-10.885 1.747-12.323 7.115-1.439 5.368 1.747 10.885 7.115 12.324zm-294.89-26.929c-1.438 5.368-6.956 8.554-12.324 7.116-5.368-1.439-8.553-6.956-7.115-12.324 1.439-5.368 6.956-8.554 12.324-7.116 5.368 1.439 8.554 6.956 7.115 12.324zm45.994 22.742c5.368 1.438 10.885-1.748 12.324-7.115 1.438-5.368-1.748-10.886-7.116-12.324-5.368-1.439-10.885 1.747-12.324 7.115-1.438 5.368 1.748 10.885 7.116 12.324zm70.641 8.511c-1.438 5.368-6.956 8.553-12.324 7.115-5.368-1.438-8.553-6.956-7.115-12.324 1.438-5.368 6.956-8.554 12.324-7.115 5.368 1.438 8.553 6.956 7.115 12.324zm45.994 22.741c5.368 1.438 10.885-1.747 12.324-7.115 1.438-5.368-1.748-10.886-7.116-12.324-5.368-1.439-10.885 1.747-12.324 7.115-1.438 5.368 1.748 10.886 7.116 12.324zm70.641 8.511c-1.438 5.368-6.956 8.553-12.324 7.115-5.368-1.438-8.553-6.956-7.115-12.324 1.438-5.368 6.956-8.553 12.324-7.115 5.368 1.438 8.553 6.956 7.115 12.324zm45.994 22.741c5.368 1.439 10.885-1.747 12.324-7.115 1.438-5.368-1.748-10.886-7.116-12.324-5.367-1.438-10.885 1.747-12.323 7.115-1.439 5.368 1.747 10.886 7.115 12.324zm-294.89-26.928c-1.438 5.368-6.956 8.553-12.324 7.115-5.368-1.438-8.553-6.956-7.115-12.324 1.438-5.368 6.956-8.553 12.324-7.115 5.368 1.438 8.553 6.956 7.115 12.324zm45.994 22.741c5.368 1.439 10.885-1.747 12.324-7.115 1.438-5.368-1.748-10.886-7.116-12.324-5.368-1.438-10.885 1.747-12.324 7.115-1.438 5.368 1.748 10.886 7.116 12.324zm70.641 8.511c-1.438 5.368-6.956 8.554-12.324 7.115-5.368-1.438-8.553-6.956-7.115-12.324 1.438-5.368 6.956-8.553 12.324-7.115 5.368 1.439 8.553 6.956 7.115 12.324zm45.994 22.741c5.368 1.439 10.885-1.747 12.324-7.115 1.438-5.368-1.748-10.885-7.116-12.324-5.368-1.438-10.885 1.748-12.324 7.116-1.438 5.367 1.748 10.885 7.116 12.323zm70.641 8.511c-1.438 5.368-6.956 8.554-12.324 7.116-5.368-1.439-8.553-6.956-7.115-12.324 1.438-5.368 6.956-8.554 12.324-7.116 5.368 1.439 8.554 6.956 7.115 12.324zm45.993 22.742c5.368 1.438 10.886-1.748 12.324-7.116 1.439-5.368-1.747-10.885-7.115-12.323-5.368-1.439-10.885 1.747-12.324 7.115-1.438 5.368 1.748 10.885 7.115 12.324zm-294.889-26.929c-1.438 5.368-6.956 8.554-12.324 7.116-5.368-1.439-8.553-6.956-7.115-12.324 1.438-5.368 6.956-8.554 12.324-7.116 5.368 1.439 8.553 6.956 7.115 12.324zm45.994 22.742c5.368 1.438 10.885-1.748 12.324-7.116 1.438-5.367-1.748-10.885-7.116-12.323-5.368-1.439-10.885 1.747-12.324 7.115-1.438 5.368 1.748 10.885 7.116 12.324zm70.641 8.511c-1.438 5.368-6.956 8.553-12.324 7.115-5.368-1.439-8.553-6.956-7.115-12.324 1.438-5.368 6.956-8.554 12.324-7.115 5.368 1.438 8.553 6.956 7.115 12.324zm45.993 22.741c5.368 1.438 10.886-1.747 12.324-7.115 1.439-5.368-1.747-10.886-7.115-12.324-5.368-1.439-10.886 1.747-12.324 7.115-1.438 5.368 1.747 10.886 7.115 12.324zm70.642 8.511c-1.439 5.368-6.956 8.553-12.324 7.115-5.368-1.438-8.554-6.956-7.115-12.324 1.438-5.368 6.956-8.553 12.324-7.115 5.368 1.438 8.553 6.956 7.115 12.324zm45.993 22.741c5.368 1.439 10.886-1.747 12.324-7.115 1.439-5.368-1.747-10.886-7.115-12.324-5.368-1.438-10.885 1.747-12.324 7.115-1.438 5.368 1.747 10.886 7.115 12.324zm-294.889-26.928c-1.438 5.368-6.956 8.553-12.324 7.115-5.368-1.438-8.554-6.956-7.115-12.324 1.438-5.368 6.956-8.553 12.324-7.115 5.368 1.438 8.553 6.956 7.115 12.324zm45.993 22.741c5.368 1.438 10.886-1.747 12.324-7.115 1.439-5.368-1.747-10.886-7.115-12.324-5.368-1.438-10.886 1.747-12.324 7.115-1.438 5.368 1.747 10.886 7.115 12.324zm70.642 8.511c-1.439 5.368-6.956 8.554-12.324 7.115-5.368-1.438-8.554-6.956-7.115-12.324 1.438-5.368 6.956-8.553 12.323-7.115 5.369 1.438 8.554 6.956 7.116 12.324zm45.993 22.741c5.368 1.439 10.886-1.747 12.324-7.115 1.439-5.368-1.747-10.885-7.115-12.324-5.368-1.438-10.886 1.748-12.324 7.115-1.438 5.368 1.747 10.886 7.115 12.324zm70.642 8.511c-1.439 5.368-6.956 8.554-12.324 7.116-5.368-1.439-8.554-6.956-7.115-12.324 1.438-5.368 6.956-8.554 12.324-7.116 5.368 1.439 8.553 6.956 7.115 12.324zm45.993 22.742c5.368 1.438 10.886-1.748 12.324-7.116 1.439-5.368-1.747-10.885-7.115-12.323-5.368-1.439-10.885 1.747-12.324 7.115-1.438 5.368 1.747 10.885 7.115 12.324zm-294.889-26.929c-1.439 5.368-6.956 8.554-12.324 7.115-5.368-1.438-8.554-6.955-7.116-12.323 1.439-5.368 6.956-8.554 12.324-7.116 5.368 1.439 8.554 6.956 7.116 12.324zm45.993 22.742c5.368 1.438 10.886-1.748 12.324-7.116 1.439-5.368-1.747-10.885-7.115-12.324-5.368-1.438-10.886 1.748-12.324 7.116-1.438 5.368 1.747 10.885 7.115 12.324zm70.642 8.511c-1.439 5.368-6.956 8.553-12.324 7.115-5.368-1.439-8.554-6.956-7.115-12.324 1.438-5.368 6.956-8.554 12.323-7.115 5.368 1.438 8.554 6.956 7.116 12.324zm45.993 22.741c5.368 1.438 10.886-1.747 12.324-7.115 1.439-5.368-1.747-10.886-7.115-12.324-5.368-1.439-10.886 1.747-12.324 7.115-1.438 5.368 1.747 10.886 7.115 12.324zm70.642 8.511c-1.439 5.368-6.956 8.553-12.324 7.115-5.368-1.438-8.554-6.956-7.115-12.324 1.438-5.368 6.956-8.554 12.324-7.115 5.368 1.438 8.553 6.956 7.115 12.324zm45.993 22.741c5.368 1.438 10.886-1.747 12.324-7.115 1.438-5.368-1.747-10.886-7.115-12.324-5.368-1.438-10.886 1.747-12.324 7.115-1.438 5.368 1.747 10.886 7.115 12.324z"
          fill="url(#gradient_svg__paint0_linear)"></path>
    <defs>
        <linearGradient id="gradient_svg__paint0_linear" x1="-242.544" y1="251.955" x2="210.555" y2="1119.37"
                        gradientUnits="userSpaceOnUse">
            <stop stop-color="#172368" stop-opacity="0.2"></stop>
            <stop offset="1" stop-color="#E249AF" stop-opacity="0.8"></stop>
        </linearGradient>
    </defs>
</svg>
