<svg width="150" height="62" fill="none" xmlns="http://www.w3.org/2000/svg">
    <path d="M19.154 62c-4.199 0-7.938-.691-11.216-2.073-3.279-1.382-5.925-3.34-7.938-5.874l7.42-6.306c1.726 1.9 3.681 3.282 5.867 4.146 2.186.806 4.4 1.21 6.644 1.21 1.783 0 3.22-.404 4.314-1.21 1.092-.806 1.639-1.929 1.639-3.369 0-1.267-.518-2.274-1.553-3.023-1.035-.691-3.509-1.555-7.42-2.591-5.81-1.498-9.922-3.542-12.338-6.133-2.128-2.304-3.193-5.155-3.193-8.552 0-2.707.806-5.068 2.416-7.084 1.61-2.073 3.74-3.685 6.385-4.837 2.646-1.152 5.522-1.728 8.628-1.728 3.566 0 6.931.634 10.095 1.9 3.163 1.268 5.81 2.995 7.938 5.184l-6.385 6.997c-1.61-1.498-3.48-2.736-5.608-3.715-2.071-1.037-3.998-1.555-5.781-1.555-4.142 0-6.212 1.44-6.212 4.32.057 1.381.69 2.476 1.898 3.282 1.15.806 3.767 1.756 7.851 2.85 5.465 1.44 9.319 3.34 11.562 5.702 1.956 2.015 2.933 4.693 2.933 8.033 0 2.764-.805 5.24-2.416 7.43-1.553 2.187-3.68 3.915-6.384 5.182C25.596 61.396 22.548 62 19.154 62zM59.616 62c-3.797 0-7.219-1.037-10.267-3.11-3.05-2.073-5.494-4.895-7.334-8.465-1.783-3.57-2.675-7.63-2.675-12.18 0-4.665.892-8.753 2.675-12.266 1.84-3.57 4.314-6.364 7.42-8.38 3.163-2.015 6.73-3.023 10.698-3.023 3.221 0 6.04.662 8.456 1.987 2.416 1.267 4.343 2.937 5.78 5.01v-6.046h11.735v45.61h-11.82v-6.134c-1.611 2.016-3.71 3.686-6.3 5.01-2.53 1.325-5.32 1.987-8.368 1.987zm3.192-10.28c3.509 0 6.356-1.238 8.542-3.714s3.278-5.73 3.278-9.761c0-4.031-1.093-7.285-3.278-9.761-2.186-2.477-5.033-3.715-8.542-3.715-3.451 0-6.27 1.239-8.455 3.715-2.129 2.476-3.193 5.73-3.193 9.76 0 4.032 1.064 7.286 3.193 9.762 2.185 2.476 5.004 3.715 8.455 3.715zM93 61.136V0h11.371l.362 61.136H92.999zM117.322 61.136V26.151h-8.628V15.527h8.628V3.864L129.056 0v15.527h8.365l4.691 10.624h-13.056v34.985h-11.734z"
          fill="#fff"></path>
    <circle cx="142.37" cy="55.111" r="6.889" fill="#EB596E"></circle>
</svg>
